<?xml version="1.0" encoding="UTF-8" standalone="no"?>
<!-- Created with Inkscape (http://www.inkscape.org/) -->
<svg
   xmlns:dc="http://purl.org/dc/elements/1.1/"
   xmlns:cc="http://creativecommons.org/ns#"
   xmlns:rdf="http://www.w3.org/1999/02/22-rdf-syntax-ns#"
   xmlns:svg="http://www.w3.org/2000/svg"
   xmlns="http://www.w3.org/2000/svg"
   xmlns:xlink="http://www.w3.org/1999/xlink"
   xmlns:sodipodi="http://sodipodi.sourceforge.net/DTD/sodipodi-0.dtd"
   xmlns:inkscape="http://www.inkscape.org/namespaces/inkscape"
   inkscape:export-ydpi="60"
   inkscape:export-xdpi="60"
   inkscape:export-filename="C:\dev\carto\5411\brands symbols\pub-32.png"
   width="48px"
   height="48px"
   id="svg11300"
   sodipodi:version="0.32"
   inkscape:version="0.46"
   sodipodi:docbase="/home/jimmac/src/cvs/tango-icon-theme/scalable/apps"
   sodipodi:docname="movies.svg"
   inkscape:output_extension="org.inkscape.output.svg.inkscape">
  <defs
     id="defs3">
    <linearGradient
       id="linearGradient38608">
      <stop
         id="stop38610"
         offset="0"
         style="stop-color:#fcaf3e;stop-opacity:0.94117647;" />
      <stop
         id="stop38612"
         offset="1"
         style="stop-color:#ce5c00;stop-opacity:1;" />
    </linearGradient>
    <inkscape:perspective
       sodipodi:type="inkscape:persp3d"
       inkscape:vp_x="0 : 24 : 1"
       inkscape:vp_y="0 : 1000 : 0"
       inkscape:vp_z="48 : 24 : 1"
       inkscape:persp3d-origin="24 : 16 : 1"
       id="perspective38097" />
    <radialGradient
       inkscape:collect="always"
       xlink:href="#linearGradient5060"
       id="radialGradient6719"
       gradientUnits="userSpaceOnUse"
       gradientTransform="matrix(-2.774389,0,0,1.969706,112.7623,-872.8854)"
       cx="605.71429"
       cy="486.64789"
       fx="605.71429"
       fy="486.64789"
       r="117.14286" />
    <linearGradient
       inkscape:collect="always"
       id="linearGradient5060">
      <stop
         style="stop-color:black;stop-opacity:1;"
         offset="0"
         id="stop5062" />
      <stop
         style="stop-color:black;stop-opacity:0;"
         offset="1"
         id="stop5064" />
    </linearGradient>
    <radialGradient
       inkscape:collect="always"
       xlink:href="#linearGradient5060"
       id="radialGradient6717"
       gradientUnits="userSpaceOnUse"
       gradientTransform="matrix(2.774389,0,0,1.969706,-1891.633,-872.8854)"
       cx="605.71429"
       cy="486.64789"
       fx="605.71429"
       fy="486.64789"
       r="117.14286" />
    <linearGradient
       id="linearGradient5048">
      <stop
         style="stop-color:black;stop-opacity:0;"
         offset="0"
         id="stop5050" />
      <stop
         id="stop5056"
         offset="0.5"
         style="stop-color:black;stop-opacity:1;" />
      <stop
         style="stop-color:black;stop-opacity:0;"
         offset="1"
         id="stop5052" />
    </linearGradient>
    <linearGradient
       inkscape:collect="always"
       xlink:href="#linearGradient5048"
       id="linearGradient6715"
       gradientUnits="userSpaceOnUse"
       gradientTransform="matrix(2.774389,0,0,1.969706,-1892.179,-872.8854)"
       x1="302.85715"
       y1="366.64789"
       x2="302.85715"
       y2="609.50507" />
    <linearGradient
       id="linearGradient2933">
      <stop
         style="stop-color:#fce94f;stop-opacity:0.94117647;"
         offset="0"
         id="stop2935" />
      <stop
         style="stop-color:#edd400;stop-opacity:1;"
         offset="1"
         id="stop2937" />
    </linearGradient>
    <radialGradient
       inkscape:collect="always"
       xlink:href="#linearGradient2933"
       id="radialGradient2939"
       cx="25.457863"
       cy="35.596233"
       fx="25.457863"
       fy="35.596233"
       r="20.530962"
       gradientUnits="userSpaceOnUse"
       gradientTransform="matrix(2.128185,0,0,2.128254,-29.01906,-39.91779)" />
  </defs>
  <sodipodi:namedview
     stroke="#3465a4"
     fill="#729fcf"
     id="base"
     pagecolor="#ffffff"
     bordercolor="#666666"
     borderopacity="0.25490196"
     inkscape:pageopacity="0.0"
     inkscape:pageshadow="2"
     inkscape:zoom="10.520833"
     inkscape:cx="25.224142"
     inkscape:cy="23.947199"
     inkscape:current-layer="layer1"
     showgrid="false"
     inkscape:grid-bbox="true"
     inkscape:document-units="px"
     inkscape:showpageshadow="false"
     inkscape:window-width="1280"
     inkscape:window-height="744"
     inkscape:window-x="0"
     inkscape:window-y="22" />
  <metadata
     id="metadata4">
    <rdf:RDF>
      <cc:Work
         rdf:about="">
        <dc:format>image/svg+xml</dc:format>
        <dc:type
           rdf:resource="http://purl.org/dc/dcmitype/StillImage" />
        <dc:creator>
          <cc:Agent>
            <dc:title>Jakub Steiner</dc:title>
          </cc:Agent>
        </dc:creator>
        <dc:source>http://jimmac.musichall.cz</dc:source>
        <cc:license
           rdf:resource="http://creativecommons.org/licenses/by-sa/2.0/" />
        <dc:title>Accessibility</dc:title>
        <dc:subject>
          <rdf:Bag>
            <rdf:li>accessibility</rdf:li>
            <rdf:li>assist</rdf:li>
          </rdf:Bag>
        </dc:subject>
      </cc:Work>
      <cc:License
         rdf:about="http://creativecommons.org/licenses/by-sa/2.0/">
        <cc:permits
           rdf:resource="http://web.resource.org/cc/Reproduction" />
        <cc:permits
           rdf:resource="http://web.resource.org/cc/Distribution" />
        <cc:requires
           rdf:resource="http://web.resource.org/cc/Notice" />
        <cc:requires
           rdf:resource="http://web.resource.org/cc/Attribution" />
        <cc:permits
           rdf:resource="http://web.resource.org/cc/DerivativeWorks" />
        <cc:requires
           rdf:resource="http://web.resource.org/cc/ShareAlike" />
      </cc:License>
    </rdf:RDF>
  </metadata>
  <g
     id="layer1"
     inkscape:label="Layer 1"
     inkscape:groupmode="layer">
    <g
       transform="matrix(2.29904e-2,0,0,2.345443e-2,44.448479,39.64914)"
       id="g6707">
      <rect
         style="opacity:0.40206185;fill:url(#linearGradient6715);fill-opacity:1;fill-rule:nonzero;stroke:none;stroke-width:1;stroke-linecap:round;stroke-linejoin:miter;marker:none;marker-start:none;marker-mid:none;marker-end:none;stroke-miterlimit:4;stroke-dasharray:none;stroke-dashoffset:0;stroke-opacity:1;visibility:visible;display:inline;overflow:visible"
         id="rect6709"
         width="1339.6335"
         height="478.35718"
         x="-1559.2523"
         y="-150.69685" />
      <path
         style="opacity:0.40206185;fill:url(#radialGradient6717);fill-opacity:1;fill-rule:nonzero;stroke:none;stroke-width:1;stroke-linecap:round;stroke-linejoin:miter;marker:none;marker-start:none;marker-mid:none;marker-end:none;stroke-miterlimit:4;stroke-dasharray:none;stroke-dashoffset:0;stroke-opacity:1;visibility:visible;display:inline;overflow:visible"
         d="M -219.61876,-150.68038 C -219.61876,-150.68038 -219.61876,327.65041 -219.61876,327.65041 C -76.744594,328.55086 125.78146,220.48075 125.78138,88.454235 C 125.78138,-43.572302 -33.655436,-150.68036 -219.61876,-150.68038 z"
         id="path6711"
         sodipodi:nodetypes="cccc" />
      <path
         sodipodi:nodetypes="cccc"
         id="path6713"
         d="M -1559.2523,-150.68038 C -1559.2523,-150.68038 -1559.2523,327.65041 -1559.2523,327.65041 C -1702.1265,328.55086 -1904.6525,220.48075 -1904.6525,88.454235 C -1904.6525,-43.572302 -1745.2157,-150.68036 -1559.2523,-150.68038 z"
         style="opacity:0.40206185;fill:url(#radialGradient6719);fill-opacity:1;fill-rule:nonzero;stroke:none;stroke-width:1;stroke-linecap:round;stroke-linejoin:miter;marker:none;marker-start:none;marker-mid:none;marker-end:none;stroke-miterlimit:4;stroke-dasharray:none;stroke-dashoffset:0;stroke-opacity:1;visibility:visible;display:inline;overflow:visible" />
    </g>
    <rect
       ry="5.454824"
       rx="5.454824"
       y="3.523345"
       x="4.4147282"
       height="40.061924"
       width="40.061924"
       id="rect11518"
       style="opacity:1;fill:url(#radialGradient2939);fill-opacity:1;fill-rule:evenodd;stroke:#edd400;stroke-width:1;stroke-linecap:butt;stroke-linejoin:bevel;marker:none;marker-start:none;marker-mid:none;marker-end:none;stroke-miterlimit:10;stroke-dasharray:none;stroke-dashoffset:0;stroke-opacity:1;visibility:visible;display:inline;overflow:visible" />
    <rect
       style="opacity:1;color:#000000;fill:none;fill-opacity:1;fill-rule:evenodd;stroke:#ffffff;stroke-width:2.00000215;stroke-linecap:butt;stroke-linejoin:bevel;marker:none;marker-start:none;marker-mid:none;marker-end:none;stroke-miterlimit:10;stroke-dasharray:none;stroke-dashoffset:0;stroke-opacity:1;visibility:visible;display:inline;overflow:visible"
       id="rect11528"
       width="37.100636"
       height="37.100636"
       x="5.8954034"
       y="5.0040197"
       rx="3.9067502"
       ry="3.9067502" />
    <path
       id="path4811"
       d="" />
    <g
       id="g4653"
       transform="matrix(3.4402509,0,0,3.4402509,-288.83213,-294.62587)">
      <path
         style="fill:#ffffff"
         id="path4655"
         d="M 87.65,92.332 C 87.58,91.875 88.236,91.736 88.341,92.203 L 88.521,93.096 L 89.189,93.098 C 89.384,93.098 89.486,93.252 89.486,93.399 L 89.486,94.612 C 89.486,94.907 89.066,94.905 89.066,94.606 C 89.066,94.329 89.066,93.663 89.066,93.663 L 88.212,93.663 C 88.013,93.663 87.888,93.526 87.857,93.37 L 87.65,92.332 z" />
    </g>
    <g
       id="g4657"
       transform="matrix(3.4402509,0,0,3.4402509,-288.83213,-294.62587)">
      <polygon
         style="fill:#ffffff"
         id="polygon4659"
         points="94.594,89.14 87.365,89.14 87.365,89.576 94.592,91.98 94.594,89.14 " />
    </g>
    <circle
       style="fill:#ffffff"
       sodipodi:ry="0.39399999"
       sodipodi:rx="0.39399999"
       sodipodi:cy="91.445999"
       sodipodi:cx="87.963997"
       id="circle4661"
       r="0.39399999"
       cy="91.445999"
       cx="87.963997"
       transform="matrix(3.4402509,0,0,3.4402509,-288.83213,-294.62587)" />
    <path
       style="fill:#ffffff"
       id="path4663"
       d="M 11.195591,24.643175 C 11.033899,23.769351 12.176063,23.562936 12.337755,24.433319 L 12.840031,27.168319 C 12.953559,27.7394 13.36983,28.224476 13.968433,28.403369 C 14.150767,28.458413 14.33654,28.465293 14.518874,28.475614 L 16.177075,28.482495 C 17.057779,28.475614 17.057779,29.638419 16.170194,29.638419 L 14.422547,29.631538 C 14.154207,29.631538 13.885867,29.590255 13.617528,29.51113 C 12.588893,29.201507 11.86988,28.355205 11.680667,27.367853 L 11.195591,24.643175 z" />
    <g
       id="g4665"
       transform="matrix(3.4402509,0,0,3.4402509,-288.83213,-294.62587)">
      <path
         style="fill:#ffffff"
         id="path4667"
         d="M 90.252,93.181 C 90.182,92.726 90.838,92.587 90.945,93.054 L 91.123,93.947 L 91.791,93.947 C 91.986,93.947 92.088,94.103 92.088,94.248 L 92.088,95.461 C 92.088,95.756 91.668,95.756 91.668,95.457 C 91.668,95.18 91.668,94.512 91.668,94.512 L 90.814,94.512 C 90.617,94.512 90.492,94.375 90.46,94.219 L 90.252,93.181 z" />
    </g>
    <circle
       style="fill:#ffffff"
       sodipodi:ry="0.39399999"
       sodipodi:rx="0.39399999"
       sodipodi:cy="92.294998"
       sodipodi:cx="90.566002"
       id="circle4669"
       r="0.39399999"
       cy="92.294998"
       cx="90.566002"
       transform="matrix(3.4402509,0,0,3.4402509,-288.83213,-294.62587)" />
    <path
       style="fill:#ffffff"
       id="path4671"
       d="M 20.147124,27.574268 C 19.985432,26.700445 21.134476,26.49403 21.289287,27.357532 L 21.798445,30.099412 C 21.911973,30.663614 22.328243,31.155569 22.919966,31.327582 C 23.10918,31.382626 23.294954,31.389507 23.477287,31.399827 L 25.135488,31.413588 C 26.016192,31.406708 26.009312,32.569513 25.121727,32.562632 L 23.374079,32.555752 C 23.11262,32.555752 22.844281,32.521349 22.575941,32.442223 C 21.540426,32.132601 20.821413,31.279419 20.63564,30.292067 L 20.147124,27.574268 z" />
    <g
       id="g4673"
       transform="matrix(3.4402509,0,0,3.4402509,-288.83213,-294.62587)">
      <path
         style="fill:#ffffff"
         id="path4675"
         d="M 92.855,94.033 C 92.783,93.576 93.441,93.439 93.546,93.904 L 93.726,94.797 L 94.394,94.799 C 94.587,94.799 94.689,94.955 94.689,95.1 L 94.689,96.313 C 94.689,96.608 94.269,96.606 94.269,96.307 C 94.269,96.03 94.269,95.364 94.269,95.364 L 93.417,95.364 C 93.218,95.364 93.093,95.227 93.062,95.071 L 92.855,94.033 z" />
    </g>
    <circle
       style="fill:#ffffff"
       sodipodi:ry="0.39399999"
       sodipodi:rx="0.39399999"
       sodipodi:cy="93.147003"
       sodipodi:cx="93.167999"
       id="circle4677"
       r="0.39399999"
       cy="93.147003"
       cx="93.167999"
       transform="matrix(3.4402509,0,0,3.4402509,-288.83213,-294.62587)" />
    <path
       style="fill:#ffffff"
       id="path4679"
       d="M 29.095217,30.495041 C 28.940405,29.621218 30.082569,29.414803 30.24426,30.285186 L 30.746537,33.020185 C 30.860065,33.591267 31.276336,34.083223 31.874939,34.255236 C 32.057273,34.31028 32.243046,34.31716 32.42538,34.327481 L 34.08358,34.334361 C 34.964285,34.327481 34.957404,35.490286 34.069819,35.490286 L 32.329053,35.476525 C 32.060713,35.476525 31.792373,35.442122 31.524034,35.362996 C 30.495399,35.060254 29.776386,34.207072 29.587173,33.21972 L 29.095217,30.495041 z" />
  </g>
</svg>
