<?xml version="1.0" encoding="UTF-8" standalone="no"?>
<!-- Created with Inkscape (http://www.inkscape.org/) -->
<svg
   xmlns:dc="http://purl.org/dc/elements/1.1/"
   xmlns:cc="http://creativecommons.org/ns#"
   xmlns:rdf="http://www.w3.org/1999/02/22-rdf-syntax-ns#"
   xmlns:svg="http://www.w3.org/2000/svg"
   xmlns="http://www.w3.org/2000/svg"
   xmlns:sodipodi="http://sodipodi.sourceforge.net/DTD/sodipodi-0.dtd"
   xmlns:inkscape="http://www.inkscape.org/namespaces/inkscape"
   width="18"
   height="126"
   id="svg2699"
   sodipodi:version="0.32"
   inkscape:version="0.46"
   version="1.0"
   sodipodi:docname="entretenerse.svg"
   inkscape:output_extension="org.inkscape.output.svg.inkscape"
   inkscape:export-filename="icons.png"
   inkscape:export-xdpi="90"
   inkscape:export-ydpi="90">
  <defs
     id="defs3">
    <inkscape:perspective
       sodipodi:type="inkscape:persp3d"
       inkscape:vp_x="0 : 526.18109 : 1"
       inkscape:vp_y="0 : 1000 : 0"
       inkscape:vp_z="744.09448 : 526.18109 : 1"
       inkscape:persp3d-origin="372.04724 : 350.78739 : 1"
       id="perspective2705" />
  </defs>
  <sodipodi:namedview
     inkscape:document-units="px"
     id="base"
     pagecolor="#ffffff"
     bordercolor="#666666"
     borderopacity="1.0"
     inkscape:pageopacity="0.0"
     inkscape:pageshadow="2"
     inkscape:zoom="3.0716056"
     inkscape:cx="-4.0337123"
     inkscape:cy="71.527288"
     inkscape:current-layer="layer1"
     showgrid="false"
     inkscape:window-width="1280"
     inkscape:window-height="744"
     inkscape:window-x="-4"
     inkscape:window-y="-4" />
  <metadata
     id="metadata4">
    <rdf:RDF>
      <cc:Work
         rdf:about="">
        <dc:format>image/svg+xml</dc:format>
        <dc:type
           rdf:resource="http://purl.org/dc/dcmitype/StillImage" />
      </cc:Work>
    </rdf:RDF>
  </metadata>
  <g
     inkscape:label="Layer 1"
     inkscape:groupmode="layer"
     id="layer1">
    <g
       id="g4519"
       transform="matrix(1.6189416,0,0,1.6189416,-210.61059,-50.2928)">
      <path
         d="M 86.102,29.04 C 85.562,29.04 85.122,29.48 85.122,30.02 L 85.122,37.542 C 85.122,38.083 85.562,38.522 86.102,38.522 L 93.623,38.522 C 94.163,38.522 94.603,38.083 94.603,37.542 L 94.603,30.02 C 94.603,29.479 94.163,29.04 93.623,29.04 L 86.102,29.04 z"
         id="path4521"
         style="fill:#ffffff" />
      <path
         d="M 93.624,38.722 C 94.276,38.722 94.805,38.195 94.805,37.542 L 94.805,30.02 C 94.805,29.368 94.277,28.839 93.624,28.839 L 86.103,28.839 C 85.451,28.839 84.922,29.367 84.922,30.02 L 84.922,37.542 C 84.922,38.194 85.45,38.722 86.103,38.722 L 93.624,38.722 z"
         id="path4523"
         style="fill:#f57900" />
      <path
         d="M 89.433,32.316 C 89.433,32.577 89.196,32.855 88.888,32.855 L 88.888,37.257 C 88.888,37.881 88.035,37.881 88.035,37.257 L 88.035,32.855 C 87.735,32.855 87.474,32.624 87.474,32.277 L 87.474,29.855 C 87.474,29.644 87.779,29.635 87.779,29.863 L 87.779,31.654 L 88.034,31.654 L 88.328,31.654 L 88.306,31.654 L 88.306,29.85 C 88.306,29.648 88.591,29.64 88.591,29.858 L 88.591,31.655 L 89.136,31.655 L 89.136,29.85 C 89.136,29.651 89.433,29.643 89.433,29.858 L 89.433,32.316 L 89.433,32.316 z"
         id="path4525"
         style="fill:#ffffff" />
      <path
         d="M 92.104,30.419 L 92.104,37.255 C 92.104,37.866 91.25,37.858 91.25,37.255 L 91.25,34.544 L 90.795,34.544 L 90.795,30.419 C 90.795,29.46 92.104,29.46 92.104,30.419 z"
         id="path4527"
         style="fill:#ffffff" />
    </g>
    <g
       id="g3535"
       transform="matrix(1.609496,0,0,1.6065332,-79.866029,-29.788773)">
      <g
         style="stroke:none"
         transform="translate(-81.858851,-15.261575)"
         id="g4775">
        <path
           stroke-miterlimit="10"
           d="M 87.16,42.766 C 86.447,42.766 86.046,43.134 86.046,43.888 L 86.046,51.65 C 86.046,52.355 86.406,52.724 87.119,52.724 L 94.914,52.724 C 95.626,52.724 95.987,52.372 95.987,51.65 L 95.987,43.888 C 95.987,43.153 95.627,42.766 94.892,42.766 C 94.892,42.766 87.157,42.763 87.16,42.766 z"
           id="path4777"
           style="fill:#f57900;stroke:none;stroke-width:0.0588;stroke-miterlimit:10" />
      </g>
      <g
         transform="translate(-81.858851,-15.261575)"
         id="g4779">
        <g
           id="g4781">
          <g
             id="g4783">
            <path
               d="M 94.857,50.022 L 87.215,50.022 C 87.215,50.577 87.636,50.833 87.975,50.833 L 94.097,50.833 C 94.502,50.833 94.857,50.515 94.857,50.022 z"
               id="path4785"
               style="fill:#ffffff" />
          </g>
          <g
             id="g4787">
            <path
               d="M 88.845,46.12 L 88.845,49.113 C 88.845,49.518 89.196,49.841 89.574,49.841 L 92.531,49.841 C 92.959,49.841 93.25,49.482 93.25,49.113 L 93.25,48.863 C 94.093,48.863 94.706,48.229 94.706,47.491 C 94.706,46.737 94.106,46.12 93.407,46.12 L 88.845,46.12 z"
               id="path4789"
               style="fill:#ffffff" />
          </g>
        </g>
        <g
           id="g4791">
          <path
             d="M 94.168,47.493 C 94.17,47.229 93.984,46.682 93.407,46.682 L 93.407,46.681 L 93.25,46.681 L 93.25,48.293 C 93.851,48.333 94.168,47.923 94.168,47.493 L 94.168,47.493 z"
             id="path4793"
             style="fill:#f57900" />
        </g>
      </g>
    </g>
    <g
       id="g4797"
       transform="matrix(1.609496,0,0,1.6066049,-212.23879,-59.63065)"
       style="stroke:none">
      <path
         style="fill:#f57900;stroke:none;stroke-width:0.0588;stroke-miterlimit:10"
         id="path4799"
         d="M 87.546,57.281 C 86.833,57.281 86.432,57.65 86.432,58.403 L 86.432,66.166 C 86.432,66.871 86.792,67.239 87.505,67.239 L 95.3,67.239 C 96.012,67.239 96.373,66.888 96.373,66.166 L 96.373,58.403 C 96.373,57.668 96.013,57.281 95.278,57.281 C 95.278,57.281 87.543,57.279 87.546,57.281 z"
         stroke-miterlimit="10" />
    </g>
    <g
       id="g4801"
       transform="matrix(1.609496,0,0,1.6066049,-212.23879,-59.63065)">
      <g
         id="g4803">
        <path
           style="fill:#ffffff"
           id="path4805"
           d="M 88.212,59.039 L 94.463,59.039 L 91.747,62.394 L 91.747,64.543 L 93.25,64.543 C 93.755,64.543 93.759,65.304 93.25,65.304 L 89.5,65.304 C 88.991,65.304 88.991,64.543 89.5,64.543 L 90.979,64.543 L 90.979,62.378 L 88.212,59.039 z" />
      </g>
      <g
         id="g4807">
        <circle
           sodipodi:ry="0.48500001"
           sodipodi:rx="0.48500001"
           sodipodi:cy="60.922001"
           sodipodi:cx="91.835999"
           style="fill:#f57900"
           id="circle4809"
           r="0.48500001"
           cy="60.922001"
           cx="91.835999" />
        <path
           id="path4811"
           d="" />
      </g>
    </g>
    <g
       id="g3557"
       transform="matrix(1.609496,0,0,1.6066946,-144.13846,-55.533398)">
      <g
         style="stroke:none"
         transform="translate(-27.957588,-5.7007417)"
         id="g4907">
        <path
           stroke-miterlimit="10"
           d="M 73.192,71.632 C 72.479,71.632 72.078,72 72.078,72.753 L 72.078,80.516 C 72.078,81.22 72.438,81.589 73.151,81.589 L 80.946,81.589 C 81.658,81.589 82.019,81.238 82.019,80.516 L 82.019,72.753 C 82.019,72.019 81.658,71.632 80.924,71.632 C 80.925,71.632 73.19,71.629 73.192,71.632 z"
           id="path4909"
           style="fill:#f57900;stroke:none;stroke-width:0.0588;stroke-miterlimit:10" />
      </g>
      <path
         clip-rule="evenodd"
         d="M 50.239412,68.617258 C 50.571412,68.782258 50.891412,69.119258 50.935412,69.546258 C 50.988412,70.054258 50.700412,70.530258 50.321412,70.706258 C 49.998412,71.755258 49.673412,72.806258 49.338412,73.889258 C 49.298412,74.018258 49.239412,74.260258 49.133412,74.271258 C 48.981412,74.287258 48.941412,74.028258 48.901412,73.903258 C 48.572412,72.858258 48.244412,71.780258 47.918412,70.748258 C 47.604412,70.576258 47.293412,70.265258 47.249412,69.833258 C 47.194412,69.300258 47.506412,68.803258 47.945412,68.632258 C 48.027412,68.001258 48.468412,67.484258 49.215412,67.553258 C 49.780412,67.605258 50.172412,68.051258 50.239412,68.617258 z M 49.146412,67.825258 C 48.660412,67.797258 48.327412,68.121258 48.231412,68.549258 C 48.590412,68.503258 48.877412,68.625258 49.091412,68.768258 C 49.305412,68.625258 49.592412,68.502258 49.951412,68.549258 C 49.853412,68.154258 49.594412,67.851258 49.146412,67.825258 z M 48.272412,68.821258 C 47.691412,68.884258 47.301412,69.633258 47.658412,70.174258 C 47.728412,70.281258 47.883412,70.445258 48.027412,70.475258 C 48.183412,70.506258 48.382412,70.475258 48.560412,70.475258 C 49.112412,70.475258 49.635412,70.475258 50.171412,70.475258 C 50.465412,70.311258 50.702412,70.025258 50.663412,69.601258 C 50.604412,68.965258 49.794412,68.576258 49.297412,68.986258 C 49.433412,69.156258 49.554412,69.412258 49.529412,69.696258 C 49.447412,69.687258 49.329412,69.715258 49.270412,69.683258 C 49.233412,69.148258 48.830412,68.761258 48.272412,68.821258 z M 48.422412,71.349258 C 48.447412,71.431258 48.464412,71.524258 48.490412,71.608258 C 48.564412,71.843258 48.626412,72.180258 48.804412,71.991258 C 48.736412,71.644258 48.620412,71.346258 48.517412,71.035258 C 48.256412,70.967258 48.378412,71.205258 48.422412,71.349258 z M 48.791412,71.308258 C 48.831412,71.440258 48.904412,71.850258 49.037412,71.840258 C 49.211412,71.827258 49.076412,71.559258 49.037412,71.430258 C 48.987412,71.268258 48.960412,71.139258 48.914412,71.048258 C 48.693412,70.994258 48.745412,71.156258 48.791412,71.308258 z"
         id="path4911"
         style="fill:#ffffff;fill-rule:evenodd;stroke:#ffffff;stroke-width:0.30000001" />
      <path
         clip-rule="evenodd"
         d="M 49.952412,68.549258 C 49.593412,68.502258 49.306412,68.625258 49.092412,68.768258 C 48.878412,68.625258 48.591412,68.503258 48.232412,68.549258 C 48.328412,68.121258 48.661412,67.797258 49.147412,67.825258 C 49.594412,67.851258 49.853412,68.154258 49.952412,68.549258 z"
         id="path4913"
         style="fill:#ffffff;fill-rule:evenodd;stroke:#ffffff;stroke-width:0.2" />
      <path
         clip-rule="evenodd"
         d="M 49.269412,69.683258 C 49.329412,69.714258 49.446412,69.687258 49.528412,69.696258 C 49.553412,69.412258 49.432412,69.156258 49.296412,68.986258 C 49.793412,68.576258 50.603412,68.965258 50.662412,69.601258 C 50.701412,70.025258 50.464412,70.311258 50.170412,70.475258 C 49.634412,70.475258 49.110412,70.475258 48.559412,70.475258 C 48.382412,70.475258 48.182412,70.506258 48.026412,70.475258 C 47.882412,70.446258 47.728412,70.282258 47.657412,70.174258 C 47.301412,69.633258 47.691412,68.885258 48.271412,68.821258 C 48.830412,68.761258 49.233412,69.148258 49.269412,69.683258 z"
         id="path4915"
         style="fill:#ffffff;fill-rule:evenodd;stroke:#ffffff;stroke-width:0.30000001" />
      <line
         x1="47.605415"
         y1="70.968254"
         x2="50.459412"
         y2="70.968254"
         id="line4917"
         style="fill:none;stroke:#f57900;stroke-width:0.30000001" />
      <line
         x1="48.544411"
         y1="71.617256"
         x2="48.926414"
         y2="72.751259"
         id="line4919"
         style="fill:none;stroke:#f57900;stroke-width:0.34999999;stroke-linecap:round" />
    </g>
    <g
       id="g3649"
       transform="matrix(1.0079107,0,0,1.0079105,-98.570619,-9.3951868)">
      <g
         style="stroke:none"
         transform="matrix(1.5968637,0,0,1.5940845,-87.210244,-197.25336)"
         id="g4923">
        <path
           stroke-miterlimit="10"
           d="M 71.536,172.159 C 70.823,172.159 70.422,172.527 70.422,173.28 L 70.422,181.043 C 70.422,181.747 70.782,182.116 71.495,182.116 L 79.29,182.116 C 80.002,182.116 80.363,181.765 80.363,181.043 L 80.363,173.28 C 80.363,172.546 80.002,172.159 79.267,172.159 C 79.268,172.159 71.534,172.156 71.536,172.159 z"
           id="path4925"
           style="fill:#75507b;stroke:none;stroke-width:0.0588;stroke-miterlimit:10" />
      </g>
      <g
         transform="matrix(1.5968637,0,0,1.5940845,-87.210244,-197.25336)"
         id="g4927">
        <path
           clip-rule="evenodd"
           stroke-miterlimit="10"
           d="M 77.292,179.519 C 77.445,179.634 77.628,179.718 77.726,179.903 C 77.812,180.067 77.834,180.305 77.759,180.504 C 77.534,181.102 76.567,181.062 76.392,180.453 C 75.414,180.453 74.436,180.453 73.458,180.453 C 73.334,180.62 73.262,180.78 73.091,180.87 C 72.424,181.221 71.802,180.483 72.124,179.887 C 72.399,179.376 73.294,179.438 73.441,180.037 C 74.419,180.037 75.397,180.037 76.375,180.037 C 76.497,179.82 76.649,179.633 76.892,179.536 C 76.892,179.009 76.892,178.48 76.892,177.953 C 75.832,177.922 74.819,177.936 73.675,177.936 C 73.378,177.936 72.844,178.012 72.641,177.902 C 72.491,177.821 72.351,177.233 72.291,177.052 C 72.028,176.256 71.822,175.65 71.541,174.801 C 71.491,174.649 71.419,174.438 71.475,174.351 C 71.552,174.232 72.037,174.268 72.225,174.268 C 73.903,174.268 75.518,174.268 77.226,174.268 C 77.514,174.268 77.845,174.32 78.059,174.268 C 78.226,174.228 78.455,173.922 78.559,173.818 C 78.704,173.673 78.924,173.341 79.093,173.318 C 79.243,173.297 79.305,173.383 79.326,173.468 C 79.376,173.666 79.034,173.909 78.876,174.068 C 78.675,174.269 78.438,174.423 78.342,174.601 C 78.236,174.801 78.154,175.163 78.075,175.402 C 77.902,175.924 77.739,176.448 77.558,176.986 C 77.47,177.249 77.326,177.541 77.291,177.769 C 77.202,178.367 77.36,178.933 77.292,179.519 z"
           id="path4929"
           style="fill:#ffffff;fill-rule:evenodd;stroke:#ffffff;stroke-width:0.25;stroke-miterlimit:10" />
        <path
           clip-rule="evenodd"
           stroke-miterlimit="10"
           d="M 72.158,175.352 C 72.289,175.345 72.46,175.361 72.541,175.352 C 72.53,175.128 72.562,174.864 72.524,174.668 C 72.329,174.668 72.135,174.668 71.941,174.668 C 71.994,174.915 72.085,175.124 72.158,175.352 z"
           id="path4931"
           style="fill-rule:evenodd;stroke:#ffffff;stroke-width:0.25;stroke-miterlimit:10" />
        <path
           clip-rule="evenodd"
           stroke-miterlimit="10"
           d="M 72.941,174.668 C 72.941,174.896 72.941,175.123 72.941,175.352 C 73.169,175.352 73.397,175.352 73.625,175.352 C 73.625,175.123 73.625,174.896 73.625,174.668 C 73.397,174.668 73.169,174.668 72.941,174.668 z"
           id="path4933"
           style="fill-rule:evenodd;stroke:#ffffff;stroke-width:0.25;stroke-miterlimit:10" />
        <path
           clip-rule="evenodd"
           stroke-miterlimit="10"
           d="M 74.025,174.668 C 74.025,174.896 74.025,175.123 74.025,175.352 C 74.248,175.362 74.513,175.331 74.708,175.369 C 74.708,175.136 74.708,174.902 74.708,174.669 C 74.481,174.668 74.253,174.668 74.025,174.668 z"
           id="path4935"
           style="fill-rule:evenodd;stroke:#ffffff;stroke-width:0.25;stroke-miterlimit:10" />
        <path
           clip-rule="evenodd"
           stroke-miterlimit="10"
           d="M 75.125,174.668 C 75.121,174.837 75.128,175.129 75.125,175.352 C 75.348,175.349 75.639,175.356 75.809,175.352 C 75.809,175.123 75.809,174.896 75.809,174.668 C 75.581,174.668 75.354,174.668 75.125,174.668 z"
           id="path4937"
           style="fill-rule:evenodd;stroke:#ffffff;stroke-width:0.25;stroke-miterlimit:10" />
        <path
           clip-rule="evenodd"
           stroke-miterlimit="10"
           d="M 76.209,174.668 C 76.209,174.896 76.209,175.123 76.209,175.352 C 76.437,175.352 76.665,175.352 76.893,175.352 C 76.893,175.123 76.893,174.896 76.893,174.668 C 76.665,174.668 76.437,174.668 76.209,174.668 z"
           id="path4939"
           style="fill-rule:evenodd;stroke:#ffffff;stroke-width:0.25;stroke-miterlimit:10" />
        <path
           clip-rule="evenodd"
           stroke-miterlimit="10"
           d="M 77.292,175.352 C 77.414,175.358 77.563,175.335 77.659,175.369 C 77.753,175.151 77.831,174.919 77.892,174.669 C 77.692,174.669 77.492,174.669 77.291,174.669 C 77.292,174.896 77.292,175.123 77.292,175.352 z"
           id="path4941"
           style="fill-rule:evenodd;stroke:#ffffff;stroke-width:0.25;stroke-miterlimit:10" />
        <path
           clip-rule="evenodd"
           stroke-miterlimit="10"
           d="M 72.308,175.768 C 72.353,175.962 72.441,176.258 72.541,176.452 C 72.541,176.224 72.541,175.997 72.541,175.768 C 72.506,175.764 72.343,175.764 72.308,175.768 z"
           id="path4943"
           style="fill-rule:evenodd;stroke:#ffffff;stroke-width:0.25;stroke-miterlimit:10" />
        <path
           clip-rule="evenodd"
           stroke-miterlimit="10"
           d="M 74.025,175.784 C 74.025,176.007 74.025,176.229 74.025,176.451 C 74.253,176.451 74.481,176.451 74.708,176.451 C 74.708,176.223 74.708,175.996 74.708,175.767 C 74.489,175.782 74.165,175.741 74.025,175.784 z"
           id="path4945"
           style="fill-rule:evenodd;stroke:#ffffff;stroke-width:0.25;stroke-miterlimit:10" />
        <path
           clip-rule="evenodd"
           stroke-miterlimit="10"
           d="M 76.209,176.451 C 76.437,176.451 76.665,176.451 76.893,176.451 C 76.893,176.223 76.893,175.996 76.893,175.767 C 76.673,175.76 76.35,175.785 76.209,175.75 C 76.209,175.984 76.209,176.218 76.209,176.451 z"
           id="path4947"
           style="fill-rule:evenodd;stroke:#ffffff;stroke-width:0.25;stroke-miterlimit:10" />
        <path
           clip-rule="evenodd"
           stroke-miterlimit="10"
           d="M 72.941,175.768 C 72.941,175.997 72.941,176.224 72.941,176.452 C 73.169,176.452 73.397,176.452 73.625,176.452 C 73.625,176.224 73.625,175.997 73.625,175.768 C 73.397,175.768 73.169,175.768 72.941,175.768 z"
           id="path4949"
           style="fill-rule:evenodd;stroke:#ffffff;stroke-width:0.25;stroke-miterlimit:10" />
        <path
           clip-rule="evenodd"
           stroke-miterlimit="10"
           d="M 75.125,175.768 C 75.125,175.997 75.125,176.224 75.125,176.452 C 75.353,176.452 75.581,176.452 75.809,176.452 C 75.809,176.224 75.809,175.997 75.809,175.768 C 75.581,175.768 75.354,175.768 75.125,175.768 z"
           id="path4951"
           style="fill-rule:evenodd;stroke:#ffffff;stroke-width:0.25;stroke-miterlimit:10" />
        <path
           clip-rule="evenodd"
           stroke-miterlimit="10"
           d="M 77.31,176.451 C 77.389,176.224 77.461,175.991 77.543,175.767 C 77.46,175.767 77.376,175.767 77.293,175.767 C 77.304,175.99 77.271,176.257 77.31,176.451 z"
           id="path4953"
           style="fill-rule:evenodd;stroke:#ffffff;stroke-width:0.25;stroke-miterlimit:10" />
        <path
           clip-rule="evenodd"
           stroke-miterlimit="10"
           d="M 72.941,176.852 C 72.941,177.08 72.941,177.308 72.941,177.536 C 73.169,177.536 73.397,177.536 73.625,177.536 C 73.625,177.308 73.625,177.08 73.625,176.852 C 73.397,176.852 73.169,176.852 72.941,176.852 z"
           id="path4955"
           style="fill-rule:evenodd;stroke:#ffffff;stroke-width:0.25;stroke-miterlimit:10" />
        <path
           clip-rule="evenodd"
           stroke-miterlimit="10"
           d="M 74.025,176.852 C 74.025,177.08 74.025,177.308 74.025,177.536 C 74.253,177.536 74.481,177.536 74.708,177.536 C 74.708,177.308 74.708,177.08 74.708,176.852 C 74.481,176.852 74.253,176.852 74.025,176.852 z"
           id="path4957"
           style="fill-rule:evenodd;stroke:#ffffff;stroke-width:0.25;stroke-miterlimit:10" />
        <path
           clip-rule="evenodd"
           stroke-miterlimit="10"
           d="M 75.125,176.852 C 75.114,177.075 75.146,177.34 75.108,177.536 C 75.341,177.536 75.575,177.536 75.808,177.536 C 75.808,177.308 75.808,177.08 75.808,176.852 C 75.581,176.852 75.354,176.852 75.125,176.852 z"
           id="path4959"
           style="fill-rule:evenodd;stroke:#ffffff;stroke-width:0.25;stroke-miterlimit:10" />
        <path
           clip-rule="evenodd"
           stroke-miterlimit="10"
           d="M 76.209,176.852 C 76.209,177.08 76.209,177.308 76.209,177.536 C 76.437,177.536 76.665,177.536 76.893,177.536 C 76.893,177.308 76.893,177.08 76.893,176.852 C 76.665,176.852 76.437,176.852 76.209,176.852 z"
           id="path4961"
           style="fill-rule:evenodd;stroke:#ffffff;stroke-width:0.25;stroke-miterlimit:10" />
        <path
           clip-rule="evenodd"
           stroke-miterlimit="10"
           d="M 72.758,180.553 C 73.18,180.543 73.109,179.912 72.741,179.936 C 72.322,179.962 72.369,180.562 72.758,180.553 z"
           id="path4963"
           style="fill-rule:evenodd;stroke:#ffffff;stroke-width:0.25;stroke-miterlimit:10" />
        <path
           clip-rule="evenodd"
           stroke-miterlimit="10"
           d="M 77.093,180.553 C 77.295,180.553 77.448,180.352 77.393,180.136 C 77.359,180.003 77.223,179.925 77.077,179.936 C 76.646,179.968 76.739,180.553 77.093,180.553 z"
           id="path4965"
           style="fill-rule:evenodd;stroke:#ffffff;stroke-width:0.25;stroke-miterlimit:10" />
        <g
           id="g4967">
          <path
             clip-rule="evenodd"
             d="M 71.941,174.668 C 72.135,174.668 72.33,174.668 72.524,174.668 C 72.562,174.863 72.53,175.128 72.541,175.352 C 72.459,175.361 72.289,175.345 72.158,175.352 C 72.085,175.124 71.994,174.915 71.941,174.668 z"
             id="path4969"
             style="fill:#75507b;fill-rule:evenodd;stroke:#ffffff;stroke-width:0.25" />
          <path
             clip-rule="evenodd"
             d="M 73.625,174.668 C 73.625,174.896 73.625,175.123 73.625,175.352 C 73.397,175.352 73.169,175.352 72.941,175.352 C 72.941,175.123 72.941,174.896 72.941,174.668 C 73.169,174.668 73.397,174.668 73.625,174.668 z"
             id="path4971"
             style="fill:#75507b;fill-rule:evenodd;stroke:#ffffff;stroke-width:0.25" />
          <path
             clip-rule="evenodd"
             d="M 74.708,174.668 C 74.708,174.901 74.708,175.135 74.708,175.368 C 74.513,175.33 74.248,175.361 74.025,175.351 C 74.025,175.122 74.025,174.895 74.025,174.667 C 74.253,174.668 74.481,174.668 74.708,174.668 z"
             id="path4973"
             style="fill:#75507b;fill-rule:evenodd;stroke:#ffffff;stroke-width:0.25" />
          <path
             clip-rule="evenodd"
             d="M 75.809,174.668 C 75.809,174.896 75.809,175.123 75.809,175.352 C 75.64,175.356 75.348,175.349 75.125,175.352 C 75.128,175.129 75.121,174.837 75.125,174.668 C 75.354,174.668 75.581,174.668 75.809,174.668 z"
             id="path4975"
             style="fill:#75507b;fill-rule:evenodd;stroke:#ffffff;stroke-width:0.25" />
          <path
             clip-rule="evenodd"
             d="M 76.893,174.668 C 76.893,174.896 76.893,175.123 76.893,175.352 C 76.665,175.352 76.437,175.352 76.209,175.352 C 76.209,175.123 76.209,174.896 76.209,174.668 C 76.437,174.668 76.665,174.668 76.893,174.668 z"
             id="path4977"
             style="fill:#75507b;fill-rule:evenodd;stroke:#ffffff;stroke-width:0.25" />
          <path
             clip-rule="evenodd"
             d="M 77.292,174.668 C 77.492,174.668 77.692,174.668 77.893,174.668 C 77.832,174.918 77.753,175.15 77.66,175.368 C 77.564,175.335 77.414,175.357 77.293,175.351 C 77.292,175.123 77.292,174.896 77.292,174.668 z"
             id="path4979"
             style="fill:#75507b;fill-rule:evenodd;stroke:#ffffff;stroke-width:0.25" />
          <path
             clip-rule="evenodd"
             d="M 72.542,175.768 C 72.542,175.997 72.542,176.224 72.542,176.452 C 72.441,176.259 72.354,175.963 72.309,175.768 C 72.343,175.764 72.506,175.764 72.542,175.768 z"
             id="path4981"
             style="fill-rule:evenodd;stroke:#ffffff;stroke-width:0.25" />
          <path
             clip-rule="evenodd"
             d="M 74.708,175.768 C 74.708,175.997 74.708,176.224 74.708,176.452 C 74.48,176.452 74.252,176.452 74.025,176.452 C 74.025,176.23 74.025,176.008 74.025,175.785 C 74.165,175.741 74.489,175.782 74.708,175.768 z"
             id="path4983"
             style="fill:#75507b;fill-rule:evenodd;stroke:#ffffff;stroke-width:0.25" />
          <path
             clip-rule="evenodd"
             d="M 76.209,175.751 C 76.35,175.785 76.672,175.761 76.893,175.768 C 76.893,175.997 76.893,176.224 76.893,176.452 C 76.665,176.452 76.437,176.452 76.209,176.452 C 76.209,176.218 76.209,175.984 76.209,175.751 z"
             id="path4985"
             style="fill:#75507b;fill-rule:evenodd;stroke:#ffffff;stroke-width:0.25" />
          <path
             clip-rule="evenodd"
             d="M 73.625,175.768 C 73.625,175.997 73.625,176.224 73.625,176.452 C 73.397,176.452 73.169,176.452 72.941,176.452 C 72.941,176.224 72.941,175.997 72.941,175.768 C 73.169,175.768 73.397,175.768 73.625,175.768 z"
             id="path4987"
             style="fill:#75507b;fill-rule:evenodd;stroke:#ffffff;stroke-width:0.25" />
          <path
             clip-rule="evenodd"
             d="M 75.809,175.768 C 75.809,175.997 75.809,176.224 75.809,176.452 C 75.581,176.452 75.353,176.452 75.125,176.452 C 75.125,176.224 75.125,175.997 75.125,175.768 C 75.354,175.768 75.581,175.768 75.809,175.768 z"
             id="path4989"
             style="fill:#75507b;fill-rule:evenodd;stroke:#ffffff;stroke-width:0.25" />
          <path
             clip-rule="evenodd"
             d="M 77.292,175.768 C 77.375,175.768 77.459,175.768 77.542,175.768 C 77.46,175.992 77.388,176.225 77.309,176.452 C 77.271,176.257 77.304,175.99 77.292,175.768 z"
             id="path4991"
             style="fill-rule:evenodd;stroke:#ffffff;stroke-width:0.25" />
          <path
             clip-rule="evenodd"
             d="M 73.625,176.852 C 73.625,177.08 73.625,177.308 73.625,177.536 C 73.397,177.536 73.169,177.536 72.941,177.536 C 72.941,177.308 72.941,177.08 72.941,176.852 C 73.169,176.852 73.397,176.852 73.625,176.852 z"
             id="path4993"
             style="fill:#75507b;fill-rule:evenodd;stroke:#ffffff;stroke-width:0.25" />
          <path
             clip-rule="evenodd"
             d="M 74.708,176.852 C 74.708,177.08 74.708,177.308 74.708,177.536 C 74.48,177.536 74.252,177.536 74.025,177.536 C 74.025,177.308 74.025,177.08 74.025,176.852 C 74.253,176.852 74.481,176.852 74.708,176.852 z"
             id="path4995"
             style="fill:#75507b;fill-rule:evenodd;stroke:#ffffff;stroke-width:0.25" />
          <path
             clip-rule="evenodd"
             d="M 75.809,176.852 C 75.809,177.08 75.809,177.308 75.809,177.536 C 75.576,177.536 75.342,177.536 75.109,177.536 C 75.147,177.341 75.115,177.075 75.126,176.852 C 75.354,176.852 75.581,176.852 75.809,176.852 z"
             id="path4997"
             style="fill:#75507b;fill-rule:evenodd;stroke:#ffffff;stroke-width:0.25" />
          <path
             clip-rule="evenodd"
             d="M 76.893,176.852 C 76.893,177.08 76.893,177.308 76.893,177.536 C 76.665,177.536 76.437,177.536 76.209,177.536 C 76.209,177.308 76.209,177.08 76.209,176.852 C 76.437,176.852 76.665,176.852 76.893,176.852 z"
             id="path4999"
             style="fill:#75507b;fill-rule:evenodd;stroke:#ffffff;stroke-width:0.25" />
          <path
             clip-rule="evenodd"
             d="M 72.742,179.936 C 73.11,179.913 73.18,180.543 72.759,180.553 C 72.369,180.562 72.322,179.962 72.742,179.936 z"
             id="path5001"
             style="fill:#75507b;fill-rule:evenodd;stroke:#ffffff;stroke-width:0.25" />
          <path
             clip-rule="evenodd"
             d="M 77.076,179.936 C 77.222,179.925 77.359,180.003 77.392,180.136 C 77.447,180.352 77.294,180.553 77.092,180.553 C 76.739,180.553 76.646,179.968 77.076,179.936 z"
             id="path5003"
             style="fill:#75507b;fill-rule:evenodd;stroke:#ffffff;stroke-width:0.25" />
        </g>
      </g>
    </g>
    <g
       transform="matrix(1.6186141,0,0,1.6189416,-165.04954,-186.02973)"
       id="g4629">
      <path
         d="M 57.974,201.829 C 57.433,201.829 56.993,202.269 56.993,202.81 L 56.993,210.331 C 56.993,210.871 57.433,211.31 57.974,211.31 L 65.495,211.31 C 66.036,211.31 66.476,210.871 66.476,210.331 L 66.476,202.81 C 66.476,202.269 66.036,201.829 65.495,201.829 L 57.974,201.829 z"
         id="path4631"
         style="fill:#ffffff" />
      <path
         d="M 65.494,211.512 C 66.146,211.512 66.676,210.985 66.676,210.332 L 66.676,202.811 C 66.676,202.159 66.147,201.629 65.494,201.629 L 57.973,201.629 C 57.321,201.629 56.791,202.158 56.791,202.811 L 56.791,210.332 C 56.791,210.984 57.32,211.512 57.973,211.512 L 65.494,211.512 z"
         id="path4633"
         style="fill:#c17d11" />
      <circle
         cx="58.935001"
         cy="205.741"
         r="0.79400003"
         id="circle4635"
         sodipodi:cx="58.935001"
         sodipodi:cy="205.741"
         sodipodi:rx="0.79400003"
         sodipodi:ry="0.79400003"
         style="fill:#ffffff" />
      <g
         id="g4637">
        <path
           d="M 63.387,207.9 C 63.424,207.875 63.473,207.882 63.5,207.918 L 63.646,208.121 C 63.671,208.156 63.664,208.207 63.628,208.234 L 62.55,209.017 C 62.515,209.042 62.464,209.035 62.437,208.999 L 62.291,208.796 C 62.266,208.761 62.273,208.71 62.309,208.683 L 63.387,207.9 z"
           id="path4639"
           style="fill:#ffffff;stroke:#ffffff;stroke-width:0.2" />
      </g>
      <polygon
         points="62.18,206.774 61.791,206.191 61.587,206.319 61.976,206.906 62.18,206.774 "
         id="polygon4641"
         style="fill:#ffffff;stroke:#ffffff;stroke-width:0.1681" />
      <polygon
         points="61.111,205.063 59.494,202.216 59.184,202.218 60.891,205.226 61.111,205.063 "
         id="polygon4643"
         style="fill:#ffffff;stroke:#ffffff;stroke-width:0.1948" />
      <path
         d="M 62.736,206.684 C 62.83,206.616 62.937,206.563 63.06,206.563 L 64.605,206.565 C 64.906,206.565 65.148,206.809 65.148,207.108 C 65.148,207.409 64.906,207.651 64.605,207.651 L 63.316,207.649 L 61.67,208.811 C 61.09,209.229 60.738,208.77 60.738,208.77 L 59.446,207.477 C 59.229,207.217 59.276,206.723 59.536,206.504 L 61.324,205.231 C 61.502,205.083 61.765,205.106 61.916,205.282 C 62.064,205.46 62.041,205.725 61.863,205.874 L 60.718,206.712 L 61.54,207.525 L 62.736,206.684 z"
         id="path4645"
         style="fill:#ffffff" />
    </g>
    <g
       transform="matrix(1.6189416,0,0,1.6189416,-138.42486,-140.73184)"
       id="g4647">
      <path
         d="M 87.301,87.747 C 86.761,87.747 86.322,88.187 86.322,88.728 L 86.322,96.249 C 86.322,96.789 86.761,97.228 87.301,97.228 L 94.824,97.228 C 95.364,97.228 95.803,96.789 95.803,96.249 L 95.803,88.728 C 95.803,88.186 95.364,87.747 94.824,87.747 L 87.301,87.747 z"
         id="path4649"
         style="fill:#ffffff" />
      <path
         d="M 94.824,97.429 C 95.476,97.429 96.004,96.902 96.004,96.249 L 96.004,88.728 C 96.004,88.076 95.477,87.546 94.824,87.546 L 87.301,87.546 C 86.649,87.546 86.121,88.075 86.121,88.728 L 86.121,96.249 C 86.121,96.901 86.648,97.429 87.301,97.429 L 94.824,97.429 z"
         id="path4651"
         style="fill:#edd400" />
      <g
         id="g4653">
        <path
           d="M 87.65,92.332 C 87.58,91.875 88.236,91.736 88.341,92.203 L 88.521,93.096 L 89.189,93.098 C 89.384,93.098 89.486,93.252 89.486,93.399 L 89.486,94.612 C 89.486,94.907 89.066,94.905 89.066,94.606 C 89.066,94.329 89.066,93.663 89.066,93.663 L 88.212,93.663 C 88.013,93.663 87.888,93.526 87.857,93.37 L 87.65,92.332 z"
           id="path4655"
           style="fill:#ffffff" />
      </g>
      <g
         id="g4657">
        <polygon
           points="94.594,89.14 87.365,89.14 87.365,89.576 94.592,91.98 94.594,89.14 "
           id="polygon4659"
           style="fill:#ffffff" />
      </g>
      <circle
         cx="87.963997"
         cy="91.445999"
         r="0.39399999"
         id="circle4661"
         sodipodi:cx="87.963997"
         sodipodi:cy="91.445999"
         sodipodi:rx="0.39399999"
         sodipodi:ry="0.39399999"
         style="fill:#ffffff" />
      <path
         d="M 87.211,92.804 C 87.164,92.55 87.496,92.49 87.543,92.743 L 87.689,93.538 C 87.722,93.704 87.843,93.845 88.017,93.897 C 88.07,93.913 88.124,93.915 88.177,93.918 L 88.659,93.92 C 88.915,93.918 88.915,94.256 88.657,94.256 L 88.149,94.254 C 88.071,94.254 87.993,94.242 87.915,94.219 C 87.616,94.129 87.407,93.883 87.352,93.596 L 87.211,92.804 z"
         id="path4663"
         style="fill:#ffffff" />
      <g
         id="g4665">
        <path
           d="M 90.252,93.181 C 90.182,92.726 90.838,92.587 90.945,93.054 L 91.123,93.947 L 91.791,93.947 C 91.986,93.947 92.088,94.103 92.088,94.248 L 92.088,95.461 C 92.088,95.756 91.668,95.756 91.668,95.457 C 91.668,95.18 91.668,94.512 91.668,94.512 L 90.814,94.512 C 90.617,94.512 90.492,94.375 90.46,94.219 L 90.252,93.181 z"
           id="path4667"
           style="fill:#ffffff" />
      </g>
      <circle
         cx="90.566002"
         cy="92.294998"
         r="0.39399999"
         id="circle4669"
         sodipodi:cx="90.566002"
         sodipodi:cy="92.294998"
         sodipodi:rx="0.39399999"
         sodipodi:ry="0.39399999"
         style="fill:#ffffff" />
      <path
         d="M 89.813,93.656 C 89.766,93.402 90.1,93.342 90.145,93.593 L 90.293,94.39 C 90.326,94.554 90.447,94.697 90.619,94.747 C 90.674,94.763 90.728,94.765 90.781,94.768 L 91.263,94.772 C 91.519,94.77 91.517,95.108 91.259,95.106 L 90.751,95.104 C 90.675,95.104 90.597,95.094 90.519,95.071 C 90.218,94.981 90.009,94.733 89.955,94.446 L 89.813,93.656 z"
         id="path4671"
         style="fill:#ffffff" />
      <g
         id="g4673">
        <path
           d="M 92.855,94.033 C 92.783,93.576 93.441,93.439 93.546,93.904 L 93.726,94.797 L 94.394,94.799 C 94.587,94.799 94.689,94.955 94.689,95.1 L 94.689,96.313 C 94.689,96.608 94.269,96.606 94.269,96.307 C 94.269,96.03 94.269,95.364 94.269,95.364 L 93.417,95.364 C 93.218,95.364 93.093,95.227 93.062,95.071 L 92.855,94.033 z"
           id="path4675"
           style="fill:#ffffff" />
      </g>
      <circle
         cx="93.167999"
         cy="93.147003"
         r="0.39399999"
         id="circle4677"
         sodipodi:cx="93.167999"
         sodipodi:cy="93.147003"
         sodipodi:rx="0.39399999"
         sodipodi:ry="0.39399999"
         style="fill:#ffffff" />
      <path
         d="M 92.414,94.505 C 92.369,94.251 92.701,94.191 92.748,94.444 L 92.894,95.239 C 92.927,95.405 93.048,95.548 93.222,95.598 C 93.275,95.614 93.329,95.616 93.382,95.619 L 93.864,95.621 C 94.12,95.619 94.118,95.957 93.86,95.957 L 93.354,95.953 C 93.276,95.953 93.198,95.943 93.12,95.92 C 92.821,95.832 92.612,95.584 92.557,95.297 L 92.414,94.505 z"
         id="path4679"
         style="fill:#ffffff" />
    </g>
    <g
       id="g16640"
       transform="translate(-24.211198,-4.58944)">
      <g
         transform="matrix(1.6186141,0,0,1.6186141,-102.59619,-137.754)"
         id="g4881">
        <path
           d="M 80.143,99.881 C 79.602,99.881 79.162,100.321 79.162,100.862 L 79.162,108.383 C 79.162,108.924 79.602,109.364 80.143,109.364 L 87.664,109.364 C 88.205,109.364 88.645,108.924 88.645,108.383 L 88.645,100.862 C 88.645,100.321 88.205,99.881 87.664,99.881 L 80.143,99.881 z"
           id="path4883"
           style="fill:#ffffff" />
        <path
           d="M 87.664,109.565 C 88.316,109.565 88.846,109.036 88.846,108.383 L 88.846,100.862 C 88.846,100.21 88.317,99.68 87.664,99.68 L 80.143,99.68 C 79.491,99.68 78.961,100.209 78.961,100.862 L 78.961,108.383 C 78.961,109.035 79.49,109.565 80.143,109.565 L 87.664,109.565 z"
           id="path4885"
           style="fill:#73d216" />
      </g>
      <path
         style="fill:#ffffff;fill-rule:evenodd"
         id="path4889"
         d="M 26.735932,27.937051 C 28.613525,27.417476 30.326019,26.731183 32.28616,26.292539 C 33.258947,28.678376 34.035882,32.634269 31.463904,33.280096 C 28.503459,34.024659 27.237703,30.848938 26.735932,27.937051 z"
         clip-rule="evenodd" />
      <path
         style="fill:#73d216;fill-rule:evenodd;stroke:#73d216;stroke-width:0.37001517"
         id="path4891"
         d="M 30.518634,28.260774 C 30.317925,28.890415 32.033656,29.272408 31.957582,28.466338 C 31.619291,28.204122 30.842356,27.935432 30.518634,28.260774 z"
         clip-rule="evenodd" />
      <path
         style="fill:#73d216;fill-rule:evenodd;stroke:#73d216;stroke-width:0.37;stroke-miterlimit:4;stroke-dasharray:none"
         d="M 28.119847,29.757992 C 29.031127,29.916616 28.946959,29.078174 29.353231,28.730172 C 28.793191,28.272104 28.063196,28.961634 28.119847,29.757992 z"
         clip-rule="evenodd"
         id="path16647" />
      <path
         style="fill:#73d216;fill-rule:evenodd;stroke:#73d216;stroke-width:0.37001517"
         id="path4895"
         d="M 29.264208,31.820106 C 30.060566,31.436495 30.944329,30.567299 32.140485,31.203414 C 31.991572,29.319347 28.540687,30.910445 29.264208,31.820106 z"
         clip-rule="evenodd" />
      <path
         style="fill:#ffffff;fill-rule:evenodd"
         id="path4897"
         d="M 34.136236,29.787127 C 36.169215,30.152934 37.653485,31.065832 39.686464,31.431639 C 38.890106,32.909433 39.380546,34.984497 38.041952,36.159611 C 36.353737,37.645498 33.462893,36.747168 33.110035,34.515099 C 32.783075,32.459459 34.082822,31.863809 34.136236,29.787127 z"
         clip-rule="evenodd" />
      <path
         style="fill:#73d216;fill-rule:evenodd;stroke:#73d216;stroke-width:0.37001517"
         id="path4899"
         d="M 34.547364,32.048331 C 35.25308,32.106601 35.805027,32.757284 36.191876,32.048331 C 35.832544,31.80392 34.736742,31.245498 34.547364,32.048331 z"
         clip-rule="evenodd" />
      <path
         style="fill:#73d216;fill-rule:evenodd;stroke:#73d216;stroke-width:0.37001517"
         id="path4901"
         d="M 36.806949,32.665023 C 37.263399,32.823647 37.608163,33.097193 38.245897,33.076151 C 38.540485,32.148685 36.910541,31.962544 36.806949,32.665023 z"
         clip-rule="evenodd" />
      <path
         style="fill:#73d216;fill-rule:evenodd;stroke:#73d216;stroke-width:0.37001517"
         id="path4903"
         d="M 37.391269,35.099418 C 36.274425,35.411811 35.435983,34.897092 34.307809,34.275544 C 34.192888,35.49436 36.860364,36.496282 37.391269,35.099418 z"
         clip-rule="evenodd" />
    </g>
    <g
       transform="matrix(1.6187778,0,0,1.6189416,-213.48943,-59.140718)"
       id="g4577">
      <path
         d="M 87.889,145.688 C 87.348,145.688 86.909,146.127 86.909,146.667 L 86.909,154.19 C 86.909,154.73 87.349,155.169 87.889,155.169 L 95.41,155.169 C 95.952,155.169 96.391,154.73 96.391,154.19 L 96.391,146.667 C 96.391,146.127 95.951,145.688 95.41,145.688 L 87.889,145.688 z"
         id="path4579"
         style="fill:#ffffff" />
      <path
         d="M 95.411,155.371 C 96.063,155.371 96.593,154.842 96.593,154.191 L 96.593,146.668 C 96.593,146.018 96.064,145.488 95.411,145.488 L 87.89,145.488 C 87.238,145.488 86.709,146.017 86.709,146.668 L 86.709,154.191 C 86.709,154.841 87.237,155.371 87.89,155.371 L 95.411,155.371 z"
         id="path4581"
         style="fill:#3465a4" />
      <path
         d="M 94.843,151.307 L 94.843,152.495 L 95.469,152.495 L 95.469,150.72 L 88.458,150.72 L 88.458,148.152 C 88.458,147.98 88.32,147.839 88.146,147.839 L 88.146,147.839 C 87.974,147.839 87.835,147.98 87.835,148.152 L 87.835,152.496 L 88.457,152.496 L 88.457,151.308 L 94.843,151.308 L 94.843,151.307 z"
         id="path4583"
         style="fill:#ffffff" />
      <circle
         cx="89.416"
         cy="148.839"
         r="0.56300002"
         id="circle4585"
         sodipodi:cx="89.416"
         sodipodi:cy="148.839"
         sodipodi:rx="0.56300002"
         sodipodi:ry="0.56300002"
         style="fill:#ffffff" />
      <path
         d="M 95.479,150.252 L 95.477,149.477 C 95.475,149.231 95.269,149.061 95.028,149.032 L 90.602,148.591 C 90.593,148.589 90.585,148.585 90.578,148.585 C 90.425,148.585 90.301,148.71 90.301,148.862 L 90.301,149.698 L 89.144,149.698 C 88.989,149.698 88.865,149.823 88.865,149.975 C 88.865,150.129 88.989,150.252 89.144,150.252 L 95.479,150.252 L 95.479,150.252 z"
         id="path4587"
         style="fill:#ffffff" />
    </g>
    <path
       style="fill:#204a87"
       d="M 2.906251,109 C 1.850702,109 1.000001,109.84908 1.000001,110.90625 L 1.000001,123.0625 C 1.000001,124.11805 1.849083,125 2.906251,125 L 15.093751,125 C 16.149302,125 17.000001,124.11967 17.000001,123.0625 L 17.000001,110.90625 C 17.000002,109.8507 16.15092,109 15.093751,109 L 2.906251,109 z M 9.000001,110.71875 C 9.552519,110.71875 10.031251,111.16623 10.031251,111.71875 L 10.031251,114.5625 L 12.031251,112.53125 C 12.428287,112.13422 13.040466,112.13422 13.437501,112.53125 C 13.834536,112.92273 13.834537,113.57727 13.437501,113.96875 L 11.437501,115.96875 L 14.281251,115.96875 C 14.833772,115.96875 15.281251,116.44193 15.281251,117 C 15.281252,117.55251 14.83377,118 14.281251,118 L 11.437501,118 L 13.437501,120 C 13.834536,120.39703 13.834537,121.04047 13.437501,121.4375 C 13.040465,121.82899 12.428286,121.82899 12.031251,121.4375 L 10.031251,119.4375 L 10.031251,122.25 C 10.031253,122.80807 9.552518,123.28125 9.000001,123.28125 C 8.441932,123.28125 8.000001,122.80807 8.000001,122.25 L 8.000001,119.40625 L 6.000001,121.4375 C 5.608517,121.82899 4.953983,121.82899 4.562501,121.4375 C 4.165467,121.04047 4.165466,120.39703 4.562501,120 L 6.562501,118 L 3.718751,118 C 3.166236,118 2.718751,117.55251 2.718751,117 C 2.718752,116.44193 3.166234,115.96875 3.718751,115.96875 L 6.562501,115.96875 L 4.562501,113.96875 C 4.165467,113.57727 4.165466,112.92273 4.562501,112.53125 C 4.953984,112.13422 5.608517,112.13422 6.000001,112.53125 L 8.000001,114.5625 L 8.000001,111.71875 C 8.000003,111.16623 8.441931,110.71875 9.000001,110.71875 z"
       id="path8545" />
    <g
       transform="matrix(1.6186141,0,0,1.6186141,-213.59664,-159.28327)"
       id="g4539">
      <path
         d="M 87.965,229.828 C 87.424,229.828 86.984,230.268 86.984,230.809 L 86.984,238.33 C 86.984,238.871 87.424,239.312 87.965,239.312 L 95.486,239.312 C 96.027,239.312 96.467,238.871 96.467,238.33 L 96.467,230.809 C 96.467,230.268 96.027,229.828 95.486,229.828 L 87.965,229.828 z"
         id="path4541"
         style="fill:#ffffff" />
      <path
         d="M 94.01,238.251 C 93.596,238.251 93.234,237.911 93.234,237.522 L 93.234,234.63 C 93.234,234.498 93.127,234.391 92.995,234.391 L 92.42,234.391 L 92.417,238.231 L 89.371,238.18 L 89.371,231.608 C 89.371,231.264 89.651,230.986 89.995,230.986 L 91.793,230.986 C 92.137,230.986 92.417,231.264 92.417,231.608 C 92.417,231.608 92.417,231.635 92.417,231.682 C 92.417,232.084 92.415,233.981 92.372,233.984 C 92.375,233.984 92.988,233.984 92.988,233.984 C 93.341,233.984 93.627,234.27 93.627,234.623 L 93.623,237.522 C 93.623,237.713 93.831,237.862 94.011,237.862 C 94.204,237.862 94.45,237.702 94.439,237.432 L 94.132,235.778 L 94.064,235.217 L 94.113,233.582 L 93.976,233.58 C 93.671,233.58 93.424,233.334 93.424,233.03 L 93.439,232.174 C 93.439,232.174 92.932,231.672 92.932,231.601 C 92.932,231.601 93.127,231.407 93.198,231.407 L 94.219,232.424 C 94.379,232.585 94.456,232.777 94.456,233.013 L 94.456,235.218 C 94.456,235.218 94.519,235.697 94.519,235.7 C 94.519,235.7 94.832,237.427 94.838,237.522 C 94.838,237.94 94.401,238.251 94.01,238.251 z M 95.487,229.628 L 87.966,229.628 C 87.314,229.628 86.784,230.157 86.784,230.81 L 86.784,238.331 C 86.784,238.983 87.313,239.513 87.966,239.513 L 95.487,239.513 C 96.139,239.513 96.669,238.984 96.669,238.331 L 96.669,230.81 C 96.668,230.157 96.139,229.628 95.487,229.628 z"
         id="path4543"
         style="fill:#729fcf" />
      <path
         d="M 94.519,235.7 C 94.519,235.696 94.456,235.218 94.456,235.218 L 94.456,233.013 C 94.456,232.777 94.379,232.585 94.219,232.424 L 93.198,231.407 C 93.128,231.407 92.932,231.601 92.932,231.601 C 92.932,231.672 93.439,232.174 93.439,232.174 L 93.424,233.03 C 93.424,233.334 93.671,233.58 93.976,233.58 L 94.113,233.582 L 94.064,235.217 L 94.132,235.778 L 94.439,237.432 C 94.451,237.702 94.205,237.862 94.011,237.862 C 93.831,237.862 93.623,237.714 93.623,237.522 L 93.627,234.623 C 93.627,234.27 93.341,233.984 92.988,233.984 C 92.988,233.984 92.375,233.984 92.372,233.984 C 92.415,233.981 92.417,232.085 92.417,231.682 C 92.417,231.635 92.417,231.608 92.417,231.608 C 92.417,231.264 92.137,230.986 91.793,230.986 L 89.995,230.986 C 89.651,230.986 89.371,231.264 89.371,231.608 L 89.371,238.18 L 92.417,238.231 L 92.42,234.391 L 92.995,234.391 C 93.127,234.391 93.234,234.498 93.234,234.63 L 93.234,237.522 C 93.234,237.911 93.596,238.251 94.01,238.251 C 94.401,238.251 94.838,237.94 94.838,237.522 C 94.832,237.427 94.519,235.7 94.519,235.7 z"
         id="path4545"
         style="fill:#ffffff" />
      <path
         d="M 93.938,232.695 C 93.902,232.686 93.75,232.652 93.75,232.652 L 93.75,233.044 C 93.75,233.151 93.833,233.269 94.061,233.318 C 94.061,233.318 94.063,233.025 94.061,232.926 C 94.059,232.827 94.012,232.715 93.938,232.695 z"
         id="path4547"
         style="fill:#729fcf" />
      <path
         d="M 91.792,231.438 L 89.994,231.438 C 89.897,231.438 89.822,231.512 89.822,231.608 L 89.822,233.125 C 89.822,233.22 89.897,233.295 89.994,233.295 L 91.792,233.295 C 91.889,233.295 91.964,233.22 91.964,233.125 L 91.964,231.608 C 91.964,231.513 91.889,231.438 91.792,231.438 z"
         id="path4549"
         style="fill:#729fcf" />
    </g>
    <g
       transform="matrix(1.597082,0,0,1.5941556,-150.5244,-162.42374)"
       id="g2755">
      <path
         stroke-miterlimit="10"
         d="M 49.614,302.909 C 48.901,302.909 48.501,303.277 48.501,304.031 L 48.501,311.794 C 48.501,312.498 48.861,312.866 49.573,312.866 L 57.368,312.866 C 58.08,312.866 58.441,312.516 58.441,311.794 L 58.441,304.031 C 58.441,303.296 58.08,302.909 57.346,302.909 C 57.346,302.909 49.611,302.907 49.614,302.909 z"
         id="path2757"
         style="fill:#edd400;stroke:#ffffff;stroke-width:0.0588;stroke-miterlimit:10" />
    </g>
    <g
       transform="matrix(1.6184503,0,0,1.6186141,-219.28584,-181.02692)"
       id="g4823">
      <g
         id="g4825">
        <path
           d="M 91.49,287.744 C 90.949,287.744 90.509,288.184 90.509,288.725 L 90.509,296.246 C 90.509,296.787 90.949,297.227 91.49,297.227 L 99.011,297.227 C 99.552,297.227 99.992,296.787 99.992,296.246 L 99.992,288.725 C 99.992,288.184 99.552,287.744 99.011,287.744 L 91.49,287.744 z"
           id="path4827"
           style="fill:#ffffff" />
        <path
           d="M 99.012,297.429 C 99.664,297.429 100.194,296.9 100.194,296.247 L 100.194,288.726 C 100.194,288.074 99.665,287.544 99.012,287.544 L 91.49,287.544 C 90.838,287.544 90.308,288.073 90.308,288.726 L 90.308,296.247 C 90.308,296.899 90.837,297.429 91.49,297.429 L 99.012,297.429 z"
           id="path4829"
           style="fill:#cc0000" />
      </g>
      <g
         id="g4831">
        <path
           clip-rule="evenodd"
           d="M 97.603,289.091 C 97.626,289.87 96.771,289.771 96.936,290.691 C 96.813,291.214 97.64,290.788 97.736,291.091 C 97.698,292.923 96.967,294.458 97.336,296.291 C 95.951,296.209 94.234,296.459 93.069,296.157 C 93.674,294.683 92.554,292.473 92.802,290.957 C 93.78,290.957 94.758,290.957 95.736,290.957 C 96.574,290.449 96.266,289.457 96.669,288.69 C 97.232,288.572 97.422,288.826 97.603,289.091 z"
           id="path4833"
           style="fill:#ffffff;fill-rule:evenodd" />
        <g
           id="g4835">
          <polygon
             points="94.728,292.024 95.77,292.024 95.77,293.006 96.75,293.006 96.75,294.044 95.777,294.044 95.777,295.024 94.731,295.024 94.731,294.044 93.75,294.044 93.75,293.006 94.728,293.006 94.728,292.024 "
             id="polygon4837"
             style="fill:#cc0000" />
        </g>
      </g>
    </g>
    <g
       id="g6154"
       transform="translate(-74.126829,-14.604143)">
      <path
         stroke-miterlimit="10"
         d="M 2.7929803,245.00228 C 1.6454085,245.00228 1,245.59355 1,246.80337 L 1,259.27603 C 1,260.40713 1.5794191,261 2.7269908,261 L 15.273024,261 C 16.418985,261 17.000013,260.43605 17.000013,259.27603 L 17.000013,246.80337 C 17.000013,245.62407 16.418985,245.00228 15.236005,245.00228 C 15.237614,245.00228 2.7897613,244.99746 2.7929803,245.00228 z"
         id="path5007"
         style="fill:#4e9a06;stroke:none;stroke-width:0.09338278;stroke-miterlimit:10" />
      <rect
         x="2.4678605"
         y="246.50294"
         width="6.2142696"
         height="1.2275033"
         id="rect5009"
         style="fill:#ffffff" />
      <rect
         x="9.3629532"
         y="246.50294"
         width="6.2142696"
         height="1.2275033"
         id="rect5011"
         style="fill:#ffffff" />
      <path
         d="M 7.6263011,253.06461 C 7.6263011,253.44218 7.318887,253.74905 6.9406552,253.74905 L 4.3445358,253.74905 C 3.9646944,253.74905 3.6572804,253.44379 3.6572804,253.06461 L 3.6572804,249.32104 C 3.6572804,248.94186 3.9646944,248.63499 4.3445358,248.63499 L 6.9406552,248.63499 C 7.318887,248.63499 7.6263011,248.94026 7.6263011,249.32104 L 7.6263011,253.06461 z"
         id="path5013"
         style="fill:#4e9a06;stroke:#ffffff;stroke-width:0.52584469" />
      <line
         x1="5.1380234"
         y1="248.77638"
         x2="5.1380234"
         y2="253.58679"
         id="line5015"
         style="fill:none;stroke:#ffffff;stroke-width:1.05168939" />
      <rect
         x="10.484773"
         y="247.2404"
         width="3.9706302"
         height="5.8627734"
         id="rect5017"
         style="fill:#4e9a06;stroke:#ffffff;stroke-width:0.54272968" />
      <g
         transform="matrix(1.6094975,0,0,1.6066796,-138.52251,-145.59758)"
         id="g5019">
        <g
           id="g5021">
          <path
             d="M 93.271,246.483 L 93.549,246.483 C 93.567,246.563 93.59,246.661 93.716,246.697 L 93.716,246.381 C 93.542,246.357 93.292,246.279 93.292,246 C 93.292,245.685 93.639,245.587 93.716,245.587 L 93.716,245.397 L 93.978,245.397 L 93.978,245.587 C 94.154,245.597 94.41,245.745 94.41,246.026 L 94.135,246.026 C 94.128,245.942 94.064,245.86 93.981,245.854 L 93.981,246.144 C 94.191,246.166 94.438,246.247 94.438,246.53 C 94.438,246.778 94.19,246.959 93.981,246.969 L 93.981,247.16 L 93.716,247.16 L 93.716,246.967 C 93.565,246.945 93.289,246.799 93.271,246.483 z"
             id="path5023"
             style="fill:#ffffff" />
        </g>
        <g
           id="g5025">
          <g
             id="g5027">
            <path
               d="M 93.718,245.857 L 93.718,246.097 C 93.531,246.095 93.528,245.891 93.718,245.857 z"
               id="path5029"
               style="fill:#4e9a06" />
          </g>
          <g
             id="g5031">
            <path
               d="M 93.984,246.427 C 94.214,246.432 94.24,246.662 93.984,246.699"
               id="path5033"
               style="fill:#4e9a06" />
            <line
               x1="93.983002"
               y1="246.69901"
               x2="93.984001"
               y2="246.427"
               id="line5035" />
          </g>
        </g>
      </g>
      <line
         x1="12.340522"
         y1="254.93802"
         x2="12.340522"
         y2="259.08163"
         id="line5037"
         style="fill:none;stroke:#ffffff;stroke-width:0.83202475;stroke-linecap:round" />
      <line
         x1="12.340522"
         y1="259.08163"
         x2="13.82769"
         y2="257.59869"
         id="line5039"
         style="fill:none;stroke:#ffffff;stroke-width:0.83202475;stroke-linecap:round" />
      <line
         x1="10.854949"
         y1="257.59869"
         x2="12.340522"
         y2="259.08163"
         id="line5041"
         style="fill:none;stroke:#ffffff;stroke-width:0.83202475;stroke-linecap:round" />
      <line
         x1="5.662714"
         y1="259.08163"
         x2="5.662714"
         y2="254.93802"
         id="line5043"
         style="fill:none;stroke:#ffffff;stroke-width:0.83202475;stroke-linecap:round" />
      <line
         x1="5.662714"
         y1="254.93802"
         x2="7.1482873"
         y2="256.42258"
         id="line5045"
         style="fill:none;stroke:#ffffff;stroke-width:0.83202475;stroke-linecap:round" />
      <line
         x1="4.1771526"
         y1="256.42258"
         x2="5.662714"
         y2="254.93802"
         id="line5047"
         style="fill:none;stroke:#ffffff;stroke-width:0.83202475;stroke-linecap:round" />
    </g>
    <g
       transform="matrix(1.6187778,0,0,1.6189416,-191.0127,-169.51612)"
       id="g5049">
      <path
         d="M 74.005,258.339 C 73.463,258.339 73.024,258.78 73.024,259.321 L 73.024,266.842 C 73.024,267.381 73.464,267.821 74.005,267.821 L 81.526,267.821 C 82.067,267.821 82.506,267.382 82.506,266.842 L 82.506,259.321 C 82.506,258.78 82.066,258.339 81.526,258.339 L 74.005,258.339 z"
         id="path5051"
         style="fill:#ffffff" />
      <path
         d="M 81.527,268.022 C 82.179,268.022 82.708,267.495 82.708,266.842 L 82.708,259.321 C 82.708,258.669 82.18,258.139 81.527,258.139 L 74.006,258.139 C 73.354,258.139 72.824,258.668 72.824,259.321 L 72.824,266.842 C 72.824,267.494 73.353,268.022 74.006,268.022 L 81.527,268.022 z"
         id="path5053"
         style="fill:#4e9a06" />
      <polygon
         points="74.552,266.503 81.572,266.503 81.572,265.772 75.282,265.772 75.282,263.013 81.572,260.171 81.572,259.415 73.77,262.938 73.77,263.694 74.552,263.345 74.552,266.503 "
         id="polygon5055"
         style="fill:#ffffff" />
      <g
         id="g5057">
        <g
           id="g5059">
          <path
             d="M 79.14,263.849 L 79.719,263.849 C 79.756,264.016 79.804,264.219 80.068,264.295 L 80.068,263.635 C 79.706,263.583 79.185,263.424 79.185,262.839 C 79.185,262.184 79.908,261.979 80.069,261.979 L 80.069,261.582 L 80.614,261.582 L 80.614,261.979 C 80.982,262 81.515,262.308 81.515,262.895 L 80.94,262.895 C 80.925,262.721 80.791,262.55 80.619,262.538 L 80.619,263.143 C 81.057,263.188 81.572,263.356 81.572,263.947 C 81.572,264.464 81.055,264.84 80.619,264.864 L 80.619,265.261 L 80.068,265.261 L 80.068,264.858 C 79.752,264.811 79.175,264.505 79.14,263.849 z"
             id="path5061"
             style="fill:#ffffff" />
        </g>
        <g
           id="g5063">
          <g
             id="g5065">
            <path
               d="M 80.071,262.543 L 80.071,263.044 C 79.682,263.039 79.675,262.613 80.071,262.543 z"
               id="path5067"
               style="fill:#4e9a06" />
          </g>
          <g
             id="g5069">
            <path
               d="M 80.625,263.729 C 81.106,263.741 81.159,264.22 80.624,264.297"
               id="path5071"
               style="fill:#4e9a06" />
            <line
               x1="80.625"
               y1="264.298"
               x2="80.625"
               y2="263.729"
               id="line5073" />
          </g>
        </g>
      </g>
    </g>
    <g
       transform="matrix(1.597082,0,0,1.594213,-188.7359,-169.1895)"
       id="g5075">
      <g
         id="g5077">
        <path
           stroke-miterlimit="10"
           d="M 73.54,273.269 C 72.827,273.269 72.427,273.637 72.427,274.391 L 72.427,282.154 C 72.427,282.858 72.787,283.226 73.499,283.226 L 81.294,283.226 C 82.006,283.226 82.367,282.876 82.367,282.154 L 82.367,274.391 C 82.367,273.656 82.006,273.269 81.272,273.269 C 81.272,273.269 73.538,273.267 73.54,273.269 z"
           id="path5079"
           style="fill:#4e9a06;stroke:#ffffff;stroke-width:0.0588;stroke-miterlimit:10" />
      </g>
      <g
         id="g5081">
        <g
           id="g5083">
          <circle
             stroke-miterlimit="10"
             cx="77.440002"
             cy="278.203"
             r="3.3670001"
             id="circle5085"
             sodipodi:cx="77.440002"
             sodipodi:cy="278.203"
             sodipodi:rx="3.3670001"
             sodipodi:ry="3.3670001"
             style="fill:none;stroke:#ffffff;stroke-width:0.87459999;stroke-miterlimit:10" />
          <path
             stroke-miterlimit="10"
             id="path5087"
             style="fill:none;stroke:#ffffff;stroke-width:0.87459999;stroke-miterlimit:10"
             d="" />
        </g>
        <g
           id="g5089">
          <path
             d="M 75.682,278.794 L 76.5,278.794 C 76.552,279.031 76.62,279.317 76.992,279.424 L 76.991,278.493 C 76.481,278.419 75.745,278.194 75.745,277.37 C 75.745,276.444 76.766,276.155 76.992,276.155 L 76.992,275.594 L 77.762,275.594 L 77.762,276.155 C 78.281,276.185 79.033,276.621 79.033,277.448 L 78.223,277.448 C 78.202,277.203 78.013,276.961 77.769,276.944 L 77.769,277.798 C 78.387,277.861 79.113,278.099 79.113,278.933 C 79.113,279.662 78.384,280.193 77.769,280.226 L 77.769,280.788 L 76.991,280.788 L 76.991,280.219 C 76.547,280.152 75.733,279.721 75.682,278.794 z"
             id="path5091"
             style="fill:#ffffff" />
        </g>
        <g
           id="g5093">
          <g
             id="g5095">
            <path
               d="M 76.997,276.952 L 76.997,277.66 C 76.449,277.651 76.438,277.051 76.997,276.952 z"
               id="path5097"
               style="fill:#4e9a06" />
          </g>
          <g
             id="g5099">
            <path
               d="M 77.779,278.626 C 78.457,278.643 78.533,279.319 77.779,279.428"
               id="path5101"
               style="fill:#4e9a06" />
            <line
               x1="77.778999"
               y1="279.42801"
               x2="77.778999"
               y2="278.62601"
               id="line5103"
               style="fill:#4e9a06" />
          </g>
        </g>
      </g>
    </g>
    <path
       d="M -59.040413,174.39585 C -57.984861,174.39585 -57.126829,173.54267 -57.126829,172.4855 L -57.126829,160.30943 C -57.126829,159.25388 -57.983245,158.39585 -59.040413,158.39585 L -71.216477,158.39585 C -72.272029,158.39585 -73.126829,159.25227 -73.126829,160.30943 L -73.126829,172.4855 C -73.126829,173.54105 -72.273645,174.39585 -71.216477,174.39585 L -59.040413,174.39585 z"
       id="path6092"
       style="fill:#3465a4" />
    <g
       id="g6096"
       transform="matrix(0.7619048,0,0,0.7619048,-83.139997,19.562808)">
      <g
         transform="matrix(3.6430444e-2,0,0,3.6366844e-2,13.080177,182.74033)"
         id="g9489">
        <g
           id="g9491">
          <ellipse
             cx="290.37201"
             cy="142.451"
             rx="96.905998"
             ry="97.874001"
             id="ellipse9493"
             sodipodi:cx="290.37201"
             sodipodi:cy="142.451"
             sodipodi:rx="96.905998"
             sodipodi:ry="97.874001"
             style="fill:#ffffff" />
          <path
             d=""
             id="path9495"
             style="fill:#ffffff" />
        </g>
        <g
           id="g9497">
          <ellipse
             cx="290.37201"
             cy="142.451"
             rx="74.566002"
             ry="75.309998"
             id="ellipse9499"
             style="fill:#3465a4"
             sodipodi:cx="290.37201"
             sodipodi:cy="142.451"
             sodipodi:rx="74.566002"
             sodipodi:ry="75.309998" />
          <path
             d=""
             id="path9501" />
        </g>
        <g
           id="g9503">
          <g
             id="g9505">
            <path
               d="M 280.326,176.995 L 302.169,176.95 L 302.169,159.98 C 302.169,155.377 304.315,151.028 310.056,147.261 C 315.798,143.496 331.827,135.857 331.827,115.771 C 331.827,95.684 314.995,81.877 300.847,78.948 C 286.701,76.019 271.373,77.946 260.496,89.863 C 250.755,100.533 248.703,108.974 248.703,127.596 L 270.528,127.596 L 270.528,123.268 C 270.528,113.345 271.675,102.87 285.852,100.005 C 293.59,98.442 300.843,100.869 305.145,105.077 C 310.068,109.889 310.108,120.732 302.264,126.131 L 289.962,134.5 C 282.787,139.103 280.326,144.228 280.326,151.76 L 280.326,176.995 L 280.326,176.995 z"
               id="path9507"
               style="fill:#ffffff" />
          </g>
          <g
             id="g9509">
            <rect
               x="280.18301"
               y="185.556"
               width="22.143999"
               height="22.493"
               id="rect9511"
               style="fill:#ffffff" />
            <path
               d=""
               id="path9513"
               style="fill:#ffffff" />
          </g>
        </g>
      </g>
      <g
         transform="matrix(3.6430444e-2,0,0,3.6366844e-2,13.080177,182.74033)"
         id="g9515">
        <g
           id="g9517">
          <path
             style="fill:#ffffff"
             id="path9519"
             d="M 407.529,299.583 C 407.557,283.603 431.644,283.603 431.629,300.033 L 431.629,367.097 L 525.518,423.528 L 525.518,448.305 L 432.08,417.552 L 432.08,467.676 L 453.704,484.57 L 453.704,504.167 L 420.368,493.806 L 387.033,504.167 L 387.033,484.57 L 408.431,467.676 L 408.431,417.552 L 314.982,448.305 L 314.982,423.528 L 407.53,367.097 L 407.53,299.583 L 407.529,299.583 z" />
        </g>
        <g
           id="g9521">
          <g
             id="g9523">
            <circle
               style="fill:#ffffff"
               sodipodi:ry="18.371"
               sodipodi:rx="18.371"
               sodipodi:cy="408.69"
               sodipodi:cx="96.280998"
               id="circle9525"
               r="18.371"
               cy="408.69"
               cx="96.280998" />
            <path
               style="fill:#ffffff"
               id="path9527"
               d="" />
          </g>
          <g
             id="g9529">
            <path
               style="fill:#ffffff"
               id="path9531"
               d="M 135.948,403.482 L 209.378,403.482 C 220.15,403.482 226.496,410.416 226.496,419.699 L 226.496,446.279 L 135.948,446.279 L 135.948,403.482 z" />
          </g>
          <g
             id="g9533">
            <path
               style="fill:#ffffff"
               id="path9535"
               d="M 115.96,412.993 L 115.96,428.934 L 87.729,428.934 C 74.098,428.983 74.077,446.504 87.729,446.504 L 124.741,446.504 C 130.146,446.504 133.53,442.141 133.53,437.207 L 133.53,412.993 C 133.53,399.729 115.96,399.729 115.96,412.993 z" />
          </g>
          <g
             id="g9537">
            <path
               style="fill:#ffffff"
               id="path9539"
               d="M 74.403,388.166 C 74.403,373.7 54.333,373.7 54.333,388.166 L 54.333,504.168 L 74.849,504.168 L 74.849,474.21 L 230.945,474.21 L 230.945,503.943 L 251.014,503.943 L 251.014,414.347 C 251.014,399.081 230.722,399.081 230.722,414.347 L 230.722,450.109 L 74.403,450.109 L 74.403,388.166 z" />
          </g>
        </g>
      </g>
    </g>
    <path
       style="fill:#ffffff;fill-opacity:1;fill-rule:nonzero;stroke:none"
       d="M -71.470579,323.52085 L -71.470579,333.20835 L -58.689329,333.20835 L -58.689329,323.52085 L -71.470579,323.52085 z M -69.970579,324.4271 L -60.251829,324.4271 L -64.345579,328.4896 C -64.761689,328.90732 -65.483874,328.91382 -65.908079,328.4896 L -69.970579,324.4271 z M -70.564329,325.0521 L -67.251829,328.3646 L -70.564329,331.6771 L -70.564329,325.0521 z M -59.626829,325.0521 L -59.626829,331.6771 L -62.939329,328.3646 L -59.626829,325.0521 z M -63.595579,328.9896 L -60.251829,332.33335 L -69.970579,332.33335 L -66.658079,329.02085 L -66.501829,329.14585 C -65.719801,329.89064 -64.468605,329.89063 -63.720579,329.14585 L -63.595579,328.9896 z"
       id="path11010" />
    <g
       id="g9340"
       transform="matrix(1.25,0,0,-1.25,-273.88705,602.16507)">
      <path
         id="path4551"
         style="fill:#ffffff;fill-opacity:1;fill-rule:nonzero;stroke:none"
         d="M 69.05,482.797 C 68.51,482.797 68.071,482.357 68.071,481.816 L 68.071,474.294 C 68.071,473.754 68.51,473.315 69.05,473.315 L 76.574,473.315 C 77.114,473.315 77.553,473.754 77.553,474.294 L 77.553,481.816 C 77.553,482.357 77.114,482.797 76.574,482.797 L 69.05,482.797 z" />
      <path
         id="path4553"
         style="fill:#231f20;fill-opacity:1;fill-rule:nonzero;stroke:none"
         d="M 76.574,473.115 C 77.226,473.115 77.753,473.642 77.753,474.294 L 77.753,481.816 C 77.753,482.468 77.226,482.998 76.574,482.998 L 69.05,482.998 C 68.398,482.998 67.871,482.468 67.871,481.816 L 67.871,474.294 C 67.871,473.642 68.398,473.115 69.05,473.115 L 76.574,473.115 z" />
      <path
         id="path4555"
         style="fill:#ffffff;fill-opacity:1;fill-rule:nonzero;stroke:none"
         d="M 69.4,478.212 C 69.33,478.669 69.986,478.808 70.091,478.341 L 70.271,477.449 L 70.939,477.447 C 71.134,477.447 71.236,477.292 71.236,477.146 L 71.236,475.933 C 71.236,475.638 70.816,475.64 70.816,475.939 L 70.816,476.882 L 69.962,476.882 C 69.763,476.882 69.638,477.019 69.607,477.175 L 69.4,478.212 z" />
      <path
         id="path4557"
         style="fill:#ffffff;fill-opacity:1;fill-rule:nonzero;stroke:none"
         d="M 76.343,481.404 L 69.115,481.404 L 69.115,480.968 L 76.341,478.564 L 76.343,481.404 z" />
      <path
         id="path4559"
         style="fill:#ffffff;fill-opacity:1;fill-rule:nonzero;stroke:none"
         d="M 69.712,478.705 C 69.929,478.705 70.107,478.88 70.107,479.097 C 70.109,479.314 69.933,479.492 69.714,479.492 C 69.498,479.494 69.32,479.318 69.32,479.101 C 69.318,478.882 69.494,478.707 69.712,478.705" />
      <path
         id="path4561"
         style="fill:#ffffff;fill-opacity:1;fill-rule:nonzero;stroke:none"
         d="M 68.96,477.74 C 68.914,477.994 69.246,478.054 69.292,477.8 L 69.439,477.005 C 69.472,476.839 69.593,476.699 69.767,476.646 C 69.82,476.63 69.875,476.628 69.927,476.625 L 70.41,476.623 C 70.666,476.625 70.666,476.287 70.408,476.287 L 69.9,476.289 C 69.822,476.289 69.744,476.3 69.666,476.324 C 69.367,476.414 69.158,476.66 69.103,476.947 L 68.96,477.74 z" />
      <path
         id="path4563"
         style="fill:#ffffff;fill-opacity:1;fill-rule:nonzero;stroke:none"
         d="M 72.001,477.363 C 71.931,477.818 72.587,477.957 72.695,477.49 L 72.873,476.597 L 73.541,476.597 C 73.736,476.597 73.837,476.441 73.837,476.296 L 73.837,475.083 C 73.837,474.789 73.417,474.789 73.417,475.087 L 73.417,476.033 L 72.564,476.033 C 72.367,476.033 72.242,476.169 72.21,476.326 L 72.001,477.363 z" />
      <path
         id="path4565"
         style="fill:#ffffff;fill-opacity:1;fill-rule:nonzero;stroke:none"
         d="M 72.314,477.855 C 72.531,477.853 72.708,478.029 72.708,478.246 C 72.71,478.464 72.535,478.64 72.318,478.642 C 72.099,478.642 71.923,478.466 71.921,478.25 C 71.921,478.033 72.097,477.855 72.314,477.855" />
      <path
         id="path4567"
         style="fill:#ffffff;fill-opacity:1;fill-rule:nonzero;stroke:none"
         d="M 71.562,476.888 C 71.515,477.142 71.849,477.203 71.894,476.951 L 72.042,476.154 C 72.076,475.99 72.197,475.847 72.369,475.796 C 72.423,475.781 72.478,475.779 72.531,475.775 L 73.013,475.771 C 73.269,475.773 73.267,475.435 73.009,475.437 L 72.501,475.439 C 72.425,475.439 72.347,475.449 72.269,475.472 C 71.968,475.562 71.759,475.81 71.705,476.097 L 71.562,476.888 z" />
      <path
         id="path4569"
         style="fill:#ffffff;fill-opacity:1;fill-rule:nonzero;stroke:none"
         d="M 74.605,476.511 C 74.533,476.968 75.191,477.105 75.296,476.64 L 75.476,475.748 L 76.144,475.746 C 76.337,475.746 76.439,475.589 76.439,475.445 L 76.439,474.232 C 76.439,473.937 76.019,473.939 76.019,474.238 L 76.019,475.181 L 75.167,475.181 C 74.968,475.181 74.843,475.318 74.812,475.474 L 74.605,476.511 z" />
      <path
         id="path4571"
         style="fill:#ffffff;fill-opacity:1;fill-rule:nonzero;stroke:none"
         d="M 74.916,477.003 C 75.134,477.003 75.31,477.179 75.312,477.396 C 75.312,477.613 75.136,477.791 74.919,477.791 C 74.703,477.792 74.525,477.617 74.525,477.4 C 74.523,477.181 74.699,477.005 74.916,477.003" />
      <path
         id="path4573"
         style="fill:#ffffff;fill-opacity:1;fill-rule:nonzero;stroke:none"
         d="M 74.164,476.039 C 74.119,476.292 74.451,476.353 74.498,476.099 L 74.644,475.304 C 74.677,475.138 74.798,474.996 74.972,474.945 C 75.025,474.929 75.08,474.927 75.132,474.923 L 75.615,474.921 C 75.871,474.923 75.869,474.585 75.611,474.585 L 75.105,474.589 C 75.027,474.589 74.949,474.599 74.871,474.623 C 74.572,474.71 74.363,474.958 74.308,475.246 L 74.164,476.039 z" />
    </g>
    <g
       id="g16541"
       transform="translate(-29.102357,-19.16513)">
      <path
         id="path9373"
         style="fill:#ffffff;fill-opacity:1;fill-rule:nonzero;stroke:none"
         d="M 32.01452,110.4841 C 31.138584,110.4841 30.427797,111.19812 30.427797,112.07406 L 30.427797,124.25135 C 30.427797,125.12729 31.138584,125.84131 32.01452,125.84131 L 44.193431,125.84131 C 45.066129,125.84131 45.776916,125.12729 45.776916,124.25135 L 45.776916,112.07406 C 45.776916,111.19812 45.066129,110.4841 44.193431,110.4841 L 32.01452,110.4841 z" />
      <path
         id="path2759"
         style="fill:#75507b;fill-opacity:1;fill-rule:nonzero;stroke:none"
         d="M 44.193431,110.16028 L 32.01452,110.16028 C 30.958863,110.16028 30.102357,111.01678 30.102357,112.07406 L 30.102357,124.25135 C 30.102357,125.30863 30.958863,126.16513 32.01452,126.16513 L 44.193431,126.16513 C 45.249088,126.16513 46.102356,125.30863 46.102356,124.25135 L 46.102356,112.07406 C 46.102356,111.01678 45.249088,110.16028 44.193431,110.16028" />
      <path
         id="path2761"
         style="fill:#ffffff;fill-opacity:1;fill-rule:nonzero;stroke:none"
         d="M 41.424761,123.59076 L 41.230468,123.59076 C 41.115512,123.46285 41.075034,123.30256 41.107416,123.10502 C 41.165704,122.77958 41.400474,122.50919 41.510573,122.47034 L 41.508954,122.4671 C 41.669246,122.41043 41.785821,122.25823 41.785821,122.07851 L 41.795536,113.55716 C 41.795536,113.32887 41.609339,113.14267 41.381045,113.14105 C 41.381045,113.14105 39.658317,113.13943 39.185538,113.13619 C 39.187157,112.73465 39.188776,112.18416 39.188776,112.18416 C 39.188776,112.01577 39.088392,111.8652 38.934577,111.80043 C 38.779142,111.73567 38.60266,111.77129 38.481227,111.88786 L 35.5976,114.75206 C 35.09082,115.2556 34.690901,116.20764 34.689282,116.92328 L 34.666615,122.88483 C 34.664996,123.71867 35.341782,124.40193 36.178859,124.40517 L 41.423142,124.42136 C 41.649816,124.42136 41.837633,124.23516 41.837633,124.00849 L 41.837633,124.00687 C 41.837633,123.77695 41.653055,123.59238 41.424761,123.59076 M 40.964935,113.97003 C 40.964935,114.68082 40.958458,120.95161 40.956839,121.66402 L 36.230671,121.66402 L 39.190395,119.18355 L 39.183919,113.96679 C 39.45269,113.96841 40.713973,113.97003 40.964935,113.97003 M 35.495597,122.88645 C 35.495597,122.88645 35.497216,122.5432 35.497216,122.493 L 40.445202,122.493 C 40.373961,122.64358 40.318912,122.80225 40.291387,122.96254 C 40.252528,123.18436 40.271958,123.39161 40.32215,123.58752 L 36.180478,123.57457 C 35.803227,123.57457 35.495597,123.26694 35.495597,122.88645" />
    </g>
    <flowRoot
       xml:space="preserve"
       id="flowRoot15674"
       style="font-size:13px;font-style:normal;font-variant:normal;font-weight:normal;font-stretch:normal;text-align:center;text-anchor:middle;fill:#000000;fill-opacity:1;stroke:none;stroke-width:1px;stroke-linecap:butt;stroke-linejoin:miter;stroke-opacity:1;font-family:Sydnie;-inkscape-font-specification:Sydnie"><flowRegion
         id="flowRegion15676"><rect
           id="rect15678"
           width="16.824732"
           height="38.163418"
           x="-277.40289"
           y="18.226494"
           style="font-style:normal;font-variant:normal;font-weight:normal;font-stretch:normal;font-family:Sydnie;-inkscape-font-specification:Sydnie" /></flowRegion><flowPara
         id="flowPara15680" /></flowRoot>    <g
       id="g16534"
       transform="translate(-29.2839,-17.1081)">
      <path
         id="path4791"
         style="fill:#ffffff;fill-opacity:1;fill-rule:nonzero;stroke:none"
         d="M 32.277024,90.431668 C 31.356498,90.431668 30.607459,91.180707 30.607459,92.101233 L 30.607459,104.11498 C 30.607459,105.03551 31.356498,105.78455 32.277024,105.78455 L 44.289158,105.78455 C 45.211301,105.78455 45.958723,105.03551 45.958723,104.11498 L 45.958723,92.101233 C 45.958723,91.180707 45.211301,90.431668 44.289158,90.431668 L 32.277024,90.431668 z" />
      <path
         id="path15683"
         style="fill:#729fcf;fill-opacity:1;fill-rule:nonzero;stroke:none"
         d="M 32.277024,90.108109 C 31.178541,90.108109 30.2839,91.001132 30.2839,92.101233 L 30.2839,104.11498 C 30.2839,105.21347 31.178541,106.10811 32.277024,106.10811 L 44.289158,106.10811 C 45.389259,106.10811 46.2839,105.21347 46.2839,104.11498 L 46.2839,92.101233 C 46.2839,91.001132 45.389259,90.108109 44.289158,90.108109 L 32.277024,90.108109 z" />
      <path
         id="path4795"
         style="fill:#ffffff;fill-opacity:1;fill-rule:nonzero;stroke:none"
         d="M 33.071362,97.74734 C 32.809279,97.74734 32.594112,97.962507 32.594112,98.22459 C 32.594112,98.486673 32.809279,98.698604 33.071362,98.698604 C 33.333445,98.698604 33.545376,98.486673 33.545376,98.22459 C 33.545376,97.962507 33.333445,97.74734 33.071362,97.74734" />
      <path
         id="path4797"
         style="fill:#ffffff;fill-opacity:1;fill-rule:nonzero;stroke:none"
         d="M 39.686529,93.775652 C 40.254375,93.775652 40.718682,93.31458 40.718682,92.743498 C 40.718682,92.170798 40.254375,91.706491 39.686529,91.706491 C 39.113829,91.706491 38.649522,92.170798 38.649522,92.743498 C 38.649522,93.31458 39.113829,93.775652 39.686529,93.775652" />
      <path
         id="path15687"
         style="fill:#ffffff;fill-opacity:1;fill-rule:nonzero;stroke:none"
         d="M 34.163374,95.88364 C 34.053364,96.038948 33.883495,96.139251 33.671564,96.178079 C 33.37389,96.22823 33.042242,96.142487 32.763981,95.940263 C 32.482484,95.741274 32.293202,95.456542 32.243051,95.160485 L 32.230108,95.011648 C 32.230108,94.856339 32.272171,94.717209 32.356296,94.597492 C 32.631321,94.212457 33.260644,94.186572 33.758925,94.540869 C 34.255588,94.895167 34.438399,95.498604 34.163374,95.88364 M 44.132231,102.99223 L 42.451342,101.00882 C 42.451342,101.00882 41.925558,97.943094 41.925558,97.936623 C 41.925558,97.933387 41.846286,97.590414 41.846286,97.590414 C 41.849522,97.59365 41.635973,96.622972 41.470957,95.864226 C 41.73304,96.016299 41.970856,96.152194 41.982181,96.158665 C 41.995123,96.186168 42.873586,97.858968 42.873586,97.858968 C 42.939916,97.981921 43.051544,98.072517 43.184203,98.11458 C 43.320098,98.155025 43.462464,98.142083 43.585417,98.075753 C 43.708369,98.012659 43.800583,97.902649 43.841028,97.766754 C 43.884709,97.634095 43.871766,97.491729 43.805437,97.368776 L 42.842848,95.532578 C 42.842848,95.532578 42.804021,95.466248 42.75387,95.416097 C 42.684304,95.346532 42.532231,95.260788 42.532231,95.260788 L 40.66206,94.196279 C 40.425861,94.076562 40.162161,94.034499 39.900078,94.091122 C 39.793303,94.113771 39.691382,94.155834 39.578136,94.218928 C 39.565194,94.222163 39.151038,94.404974 38.911605,94.967967 L 37.950634,96.901233 C 37.950634,96.901233 36.488147,97.185965 36.437995,97.194054 C 36.425053,97.19729 36.41211,97.200525 36.402403,97.206997 L 35.036984,96.241173 C 34.729603,96.026006 34.692393,95.380505 34.689158,95.356238 C 34.650331,94.912962 34.397954,94.495571 33.993506,94.209221 C 33.626266,93.950374 33.184608,93.838746 32.780159,93.905076 C 32.464689,93.958463 32.196134,94.123478 32.024648,94.362912 C 31.891989,94.550576 31.822424,94.773832 31.822424,95.014883 C 31.822424,95.018119 31.841837,95.223579 31.841837,95.223579 C 31.911402,95.631264 32.160543,96.009828 32.527783,96.271911 C 32.89664,96.533994 33.33668,96.645622 33.741129,96.576056 L 33.834962,96.556643 C 33.844668,96.550172 34.451342,96.364125 34.749016,96.56635 C 34.749016,96.569585 35.771463,97.289504 36.043253,97.482022 C 36.014132,97.52732 35.963981,97.624388 35.967216,97.726309 C 35.967216,97.757047 35.970452,97.789403 35.976923,97.820141 C 36.03031,98.104873 36.308571,98.294155 36.591685,98.237533 L 38.406852,97.883235 C 38.406852,97.883235 38.560543,97.836319 38.626873,97.789403 C 38.712616,97.729545 38.77571,97.601739 38.77571,97.601739 L 39.25296,96.642386 C 39.25296,96.642386 39.581372,98.193852 39.587843,98.221355 C 39.550634,98.260182 38.099471,99.798705 38.099471,99.798705 L 38.073586,99.829444 C 37.932838,99.958867 37.853566,100.13035 37.853566,100.30993 L 37.853566,103.57141 C 37.853566,103.91923 38.138298,104.20073 38.484507,104.20073 C 38.829097,104.20073 39.113829,103.91923 39.113829,103.57141 L 39.113829,100.84704 C 39.246488,100.70791 40.359532,99.536623 40.655588,99.226006 C 40.687944,99.410434 40.974294,101.0622 40.974294,101.0622 C 41.000179,101.20781 41.069744,101.34047 41.173283,101.44724 C 41.173283,101.45048 43.171261,103.8076 43.171261,103.8076 C 43.281271,103.93379 43.433344,104.01306 43.599977,104.02924 C 43.768227,104.04218 43.930007,103.9888 44.059431,103.8804 C 44.205032,103.75745 44.279451,103.57788 44.279451,103.39992 C 44.279451,103.25594 44.232535,103.11357 44.132231,102.99223" />
    </g>
    <g
       id="g16662"
       transform="translate(-24.211198,-8.50592)">
      <path
         d="M 27.1244,63.831269 C 26.248729,63.831269 25.536539,64.543459 25.536539,65.419129 L 25.536539,77.592715 C 25.536539,78.468385 26.248729,79.180575 27.1244,79.180575 L 39.297996,79.180575 C 40.173666,79.180575 40.885856,78.468385 40.885856,77.592715 L 40.885856,65.419129 C 40.885856,64.543459 40.173666,63.831269 39.297996,63.831269 L 27.1244,63.831269 z"
         id="path4719"
         style="fill:#ffffff" />
      <path
         d="M 39.297996,79.505925 C 40.353332,79.505925 41.211198,78.649675 41.211198,77.592715 L 41.211198,65.419129 C 41.211198,64.363789 40.354951,63.505929 39.297996,63.505929 L 27.1244,63.505929 C 26.069063,63.505929 25.211198,64.362179 25.211198,65.419129 L 25.211198,77.592715 C 25.211198,78.648055 26.067445,79.505925 27.1244,79.505925 L 39.297996,79.505925 z"
         id="path4721"
         style="fill:#f57900" />
      <path
         d="M 31.756296,68.124681 C 31.756296,68.124681 31.756296,73.699157 31.756296,73.816565 C 31.756296,73.99026 31.725006,74.01708 31.591085,73.93671 C 31.208847,73.707367 30.750982,73.635845 30.27177,73.723879 C 29.448453,73.875132 28.684523,74.441556 28.797644,75.318333 C 28.916694,76.241087 29.674147,76.585101 30.435339,76.495426 C 31.273709,76.39681 32.116732,75.772092 32.116732,74.815219 C 32.116732,74.428876 32.116732,69.966631 32.116732,68.703785 L 37.275489,67.280746 C 37.275489,68.658172 37.275489,72.253493 37.275489,72.374824 C 37.275489,72.548519 37.244198,72.575248 37.110278,72.494969 C 36.72804,72.265535 36.270175,72.194105 35.790963,72.282138 C 34.967646,72.4333 34.203716,72.999816 34.316928,73.876592 C 34.435978,74.799346 35.193339,75.143361 35.954532,75.053685 C 36.792902,74.954978 37.635924,74.330351 37.635924,73.373479 C 37.635924,73.013591 37.635924,66.502677 37.635924,66.502677 L 31.756296,68.124681"
         style="fill:#ffffff;fill-opacity:1;fill-rule:nonzero;stroke:#ffffff;stroke-width:0.60000002;stroke-linejoin:round;stroke-miterlimit:4;stroke-dasharray:none;stroke-opacity:1"
         id="path16579" />
    </g>
    <g
       id="g16654"
       transform="translate(-24.46043,-6.69123)">
      <g
         transform="matrix(1.597082,0,0,1.5941556,-51.937144,-439.12892)"
         id="g4815">
        <path
           stroke-miterlimit="10"
           d="M 49.614,302.909 C 48.901,302.909 48.501,303.277 48.501,304.031 L 48.501,311.794 C 48.501,312.498 48.861,312.866 49.573,312.866 L 57.368,312.866 C 58.08,312.866 58.441,312.516 58.441,311.794 L 58.441,304.031 C 58.441,303.296 58.08,302.909 57.346,302.909 C 57.346,302.909 49.611,302.907 49.614,302.909 z"
           id="path4817"
           style="fill:#ef2929;stroke:#ffffff;stroke-width:0.0588;stroke-miterlimit:10" />
      </g>
      <g
         transform="matrix(1,0,0,0.8594219,0,7.9229175)"
         id="g16632">
        <path
           style="fill:#ffffff;fill-opacity:1;fill-rule:nonzero;stroke:none"
           d="M 28.478787,47.640782 L 28.478787,56.359532 L 38.478787,56.359532 L 38.478787,47.640782 L 28.478787,47.640782 z M 33.478787,48.984532 C 34.684405,48.984532 35.831173,49.224092 36.947537,49.703282 C 37.146418,50.428052 37.260039,51.202722 37.260037,51.953282 C 37.260037,52.703842 37.14642,53.478512 36.947537,54.203282 C 35.831171,54.682472 34.684406,54.922032 33.478787,54.922032 C 32.273244,54.922032 31.126401,54.682472 30.010037,54.203282 C 29.811156,53.478512 29.666286,52.703842 29.666287,51.953282 C 29.666287,51.202722 29.811154,50.428062 30.010037,49.703282 C 31.126403,49.224082 32.273245,48.984532 33.478787,48.984532 z"
           id="path16617" />
        <path
           style="fill:none;fill-opacity:1;fill-rule:evenodd;stroke:#ffffff;stroke-width:1.34836292;stroke-linecap:round;stroke-linejoin:round;stroke-miterlimit:4;stroke-dasharray:none;stroke-opacity:1"
           d="M 33.149886,47.99619 L 30.157188,45.780442"
           id="path16628" />
        <path
           style="fill:#ef2929;fill-opacity:1;fill-rule:evenodd;stroke:#ffffff;stroke-width:1.34836292;stroke-linecap:round;stroke-linejoin:round;stroke-miterlimit:4;stroke-dasharray:none;stroke-opacity:1"
           d="M 32.833351,47.909862 L 37.005863,45.348803"
           id="path16630" />
      </g>
    </g>
    <path
       style="fill:#ffffff;fill-opacity:1;stroke:#ffffff;stroke-width:0.50000000000000000;stroke-linecap:butt;stroke-linejoin:miter;stroke-miterlimit:4;stroke-dasharray:none;stroke-opacity:0"
       d="M 8.8333484,123.2444 C 8.5146021,123.1838 8.2661194,122.98435 8.1159312,122.66857 L 8.0217153,122.47048 L 8.0064772,120.93692 L 7.9912391,119.40337 L 6.9274668,120.47395 C 6.3423922,121.06277 5.8143922,121.56957 5.7541334,121.60017 C 5.693875,121.63077 5.5637072,121.67249 5.4648717,121.69289 C 4.7132069,121.84804 4.0844591,121.09502 4.3528994,120.36114 C 4.4127656,120.19748 4.4951477,120.10673 5.4957566,119.1023 C 6.0888428,118.50694 6.5740962,118.0098 6.5740962,117.99754 C 6.5740962,117.98527 5.8885292,117.97524 5.0506137,117.97524 C 3.6296751,117.97524 3.5169122,117.97136 3.3753141,117.91755 C 2.5657336,117.60994 2.5235634,116.48316 3.3066512,116.08293 L 3.4502867,116.00952 L 5.0121915,116.0011 C 5.8712391,115.99647 6.5740962,115.98301 6.5740962,115.97119 C 6.5740962,115.95936 6.0888434,115.46258 5.4957566,114.86723 C 4.4835908,113.85119 4.4132746,113.77354 4.349917,113.6019 C 4.1686261,113.11079 4.4048473,112.54783 4.8826677,112.33227 C 4.9995454,112.27954 5.0918538,112.26342 5.2788581,112.2631 C 5.7043938,112.26235 5.7070239,112.26432 6.926205,113.49343 L 7.9912391,114.56714 L 8.0064772,113.03237 L 8.0217153,111.49761 L 8.1213898,111.29522 C 8.1762095,111.18391 8.2715838,111.04848 8.3333316,110.99426 C 8.8399532,110.54944 9.6318212,110.71738 9.923144,111.33143 L 10.002668,111.49905 L 10.011359,113.03048 C 10.016138,113.87276 10.02622,114.5619 10.033766,114.5619 C 10.041308,114.5619 10.522686,114.082 11.103492,113.49546 C 12.307451,112.2796 12.329269,112.26305 12.729363,112.26173 C 13.008135,112.26082 13.22618,112.35079 13.421715,112.54741 C 13.631641,112.75851 13.690287,112.91224 13.690287,113.25143 C 13.690287,113.69831 13.703693,113.67984 12.494736,114.89885 C 11.920287,115.47807 11.450287,115.96114 11.450287,115.97233 C 11.450287,115.98351 12.146287,115.99646 12.996953,116.0011 C 14.543401,116.00952 14.543641,116.00953 14.686639,116.07997 C 15.150154,116.30828 15.376483,116.87144 15.196871,117.34953 C 15.105363,117.59311 14.879977,117.82003 14.64058,117.9096 C 14.469529,117.9736 14.426911,117.97524 12.936227,117.97524 L 11.407309,117.97524 L 12.463626,119.03557 C 13.420048,119.99563 13.529013,120.11529 13.615843,120.30084 C 13.70376,120.48872 13.710803,120.52663 13.700499,120.75669 C 13.68737,121.04984 13.609842,121.23327 13.41797,121.42515 C 13.109087,121.73403 12.62547,121.80033 12.257906,121.58418 C 12.190858,121.54475 11.669791,121.04575 11.099978,120.47529 C 10.530165,119.90483 10.054081,119.4381 10.042012,119.4381 C 10.029944,119.4381 10.016153,120.1207 10.011369,120.95499 L 10.002668,122.47188 L 9.9033244,122.67361 C 9.697342,123.0919 9.2595481,123.32544 8.8333493,123.2444 L 8.8333484,123.2444 z"
       id="path2635" />
  </g>
</svg>
